<?xml version="1.0" encoding="utf-8"?>
<!-- Generator: Adobe Illustrator 24.1.2, SVG Export Plug-In . SVG Version: 6.00 Build 0)  -->
<svg version="1.1" id="_x22__x40_" xmlns="http://www.w3.org/2000/svg" xmlns:xlink="http://www.w3.org/1999/xlink" x="0px" y="0px"
	 viewBox="0 0 105 105" style="enable-background:new 0 0 105 105;" xml:space="preserve">
<style type="text/css">
	.st0{fill:none;stroke:#000D20;stroke-width:3.1338482;stroke-miterlimit:10;}
	.st1{stroke:#000D20;stroke-width:0.783462;stroke-miterlimit:10;}
</style>
<g>
	
		<ellipse transform="matrix(0.3400216 -0.9404176 0.9404176 0.3400216 -14.7230759 84.0208054)" class="st0" cx="52.5000038" cy="52.5000191" rx="50.0000229" ry="49.9999924"/>
	<path class="st1" d="M63.2060165,74.0513382c-3.8484497,2.029007-7.7664604,2.7987595-12.4550171,2.7987595
		c-11.4757614,0-21.2016582-8.3977661-21.2016582-21.8313866c0-14.4144363,10.0066891-26.8702984,25.5397663-26.8702984
		c12.1749992,0,20.3623314,8.5369854,20.3623314,20.2223911c0,10.4963493-5.8782272,16.6538849-12.4557877,16.6538849
		c-2.7987633,0-5.3878708-1.8897858-5.178215-6.1575356H57.538208c-2.4491005,4.1285286-5.6670914,6.1575356-9.8659782,6.1575356
		c-4.0580978,0-7.5568848-3.2891273-7.5568848-8.8169975c0-8.6762085,6.856781-16.5835266,16.5835419-16.5835266
		c3.0083389,0,5.6678772,0.6296654,7.4872398,1.4697723l-2.3794594,12.6646538
		c-1.0496826,5.3182144-0.2096558,7.7673149,2.0986595,7.8369675c3.5692215,0.0703545,7.5576706-4.688549,7.5576706-12.8055229
		c0-10.1459808-6.0878983-17.4228497-16.9339867-17.4228497c-11.4045448,0-20.9912224,9.0266514-20.9912224,23.2315121
		c0,11.6853294,7.6272392,18.8925438,17.9828911,18.8925438c3.9876595,0,7.6968803-0.8400269,10.5659981-2.4498062
		L63.2060165,74.0513382z M59.3575668,43.8222618c-0.7000237-0.2096519-1.8890076-0.4896622-3.4987869-0.4896622
		c-6.1575432,0-11.1253166,5.8078804-11.1253166,12.5950851c0,3.0787659,1.5394249,5.3182144,4.6181145,5.3182144
		c4.0581017,0,7.7665405-5.1782112,8.5363007-9.5163155L59.3575668,43.8222618z"/>
</g>
</svg>
