<?xml version="1.0" encoding="utf-8"?>
<!-- Generator: Adobe Illustrator 24.1.2, SVG Export Plug-In . SVG Version: 6.00 Build 0)  -->
<svg version="1.1" id="info" xmlns="http://www.w3.org/2000/svg" xmlns:xlink="http://www.w3.org/1999/xlink" x="0px" y="0px"
	 viewBox="0 0 105 105" style="enable-background:new 0 0 105 105;" xml:space="preserve">
<style type="text/css">
	.st0{fill:none;stroke:#000D20;stroke-width:3.1338212;stroke-miterlimit:10;}
</style>
<g>
	
		<image style="overflow:visible;opacity:0.2;" width="114" height="114" xlink:href="87B7B442.png"  transform="matrix(1 0 0 1 -2.2551663 -2.7016819)">
	</image>
	<g>
		<g>
			<path class="st0" d="M2.5,52.5000381C2.5,24.8856869,24.8866081,2.5,52.5011368,2.5S102.5,24.8856869,102.5,52.5000381
				C102.5,80.1147079,80.1156769,102.5,52.5011368,102.5S2.5,80.1147079,2.5,52.5000381z"/>
			<g>
				<path d="M54.5931091,34.6070328c0.0581474,1.7425117-1.2203217,3.1365242-3.2531738,3.1365242
					c-1.8010292,0-3.0787354-1.3940125-3.0787354-3.1365242c0-1.800663,1.3358536-3.195055,3.1950302-3.195055
					C53.3727875,31.4119778,54.5931091,32.8063698,54.5931091,34.6070328z M48.9000511,70.6213913V42.507061h5.1115875v28.1143303
					H48.9000511z"/>
			</g>
		</g>
	</g>
</g>
</svg>
