<?xml version="1.0" encoding="utf-8"?>
<!-- Generator: Adobe Illustrator 24.1.2, SVG Export Plug-In . SVG Version: 6.00 Build 0)  -->
<svg version="1.1" id="Capa_1" xmlns="http://www.w3.org/2000/svg" xmlns:xlink="http://www.w3.org/1999/xlink" x="0px" y="0px"
	 viewBox="0 0 260 316" style="enable-background:new 0 0 260 316;" xml:space="preserve">
<style type="text/css">
	.st0{fill:#F9804B;}
</style>
<path class="st0" d="M130,0C58.3200073,0,0,50,0,111.460022c0,74.8200073,119.1900024,197.0799561,124.2600098,202.25
	c1.4199829,1.4400024,3.5100098,2.2799683,5.7099609,2.289978H130c2.1900024,0,4.2700195-0.8200073,5.7000122-2.25
	C140.7700195,308.6699829,260,188.4299927,260,111.460022C260,50,201.6799927,0,130,0z M130,168.5499878
	c-31.4799805,0-57-25.5199585-57-57c0-31.4799805,25.5200195-57,57-57s57,25.5200195,57,57
	C187,143.0300293,161.4799805,168.5499878,130,168.5499878z"/>
</svg>
