<?xml version="1.0" encoding="utf-8"?>
<!-- Generator: Adobe Illustrator 24.1.2, SVG Export Plug-In . SVG Version: 6.00 Build 0)  -->
<svg version="1.1" id="Layer_1" xmlns="http://www.w3.org/2000/svg" xmlns:xlink="http://www.w3.org/1999/xlink" x="0px" y="0px"
	 viewBox="0 0 45.940506 61.2011986" style="enable-background:new 0 0 45.940506 61.2011986;" xml:space="preserve">
<style type="text/css">
	.st0{fill:#F9804B;}
	.st1{fill-rule:evenodd;clip-rule:evenodd;fill:#F9804B;}
	.st2{fill:#FEFEFE;}
</style>
<g>
	<g>
		<path class="st0" d="M30.3056984,61.2011986H0.961C0.4297,61.2011986,0,60.7695007,0,60.2383003V0.9629C0,0.4316,0.4297,0,0.961,0
			h44.0166016c0.2557983,0,0.5018997,0.1016,0.6815987,0.2832c0.1806984,0.1816,0.2821999,0.4277,0.2812996,0.6835999
			l-0.169899,44.607399c-0.0009995,0.2519989-0.0997009,0.4942017-0.277401,0.6719017L30.9892998,60.9141006
			C30.8095989,61.097599,30.5625,61.2011986,30.3056984,61.2011986z M1.9239,59.2753983h27.9794979l13.9442997-14.1015968
			l0.1631126-43.25H1.9239V59.2753983z"/>
	</g>
	<g>
		<path class="st0" d="M30.3046989,61.2011986c-0.1229992,0-0.2469997-0.0234985-0.3652-0.0723
			c-0.3603992-0.1483994-0.5966873-0.5-0.5966873-0.8905983v-7.3046989c0-5.7578011,2.5390873-8.3262024,8.2323875-8.3262024
			h7.2333984c0.3887024,0,0.7383003,0.2324028,0.8887024,0.5918007c0.1483994,0.3594017,0.0683975,0.7714996-0.2041016,1.0469017
			L30.9892998,60.9141006C30.8056984,61.1016006,30.5576992,61.2011986,30.3046989,61.2011986z M37.5751991,46.5331993
			c-4.597599,0-6.3066006,1.7344017-6.3066006,6.4004021v4.9608994l11.2334003-11.3613014H37.5751991z"/>
	</g>
	<g>
		<rect x="1.0556999" y="0.9629" class="st1" width="43.829113" height="14.8183002"/>
	</g>
	<g>
		<path class="st2" d="M14.1562996,12.5723h-1.6631002v-1.4707003h1.6631002V12.5723z M17.5205994,9.5136995V12.5723h-1.6622
			V4.1543002h3.3261995c0.9531002,0,1.7012138,0.2637,2.2616997,0.7538996c0.5420017,0.4902,0.8223,1.1328001,0.8223,1.9453001
			c0,0.7909999-0.2802982,1.4512-0.8223,1.9433999c-0.5604858,0.4726-1.3085995,0.7167997-2.2616997,0.7167997H17.5205994z
			 M17.5205994,8.2109003h1.6639996c0.4678001,0,0.8037014-0.1133003,1.0468998-0.3750005
			c0.2432003-0.2460999,0.3544998-0.5878997,0.3544998-0.9823999c0-0.3965001-0.1112995-0.7363-0.3544998-1
			c-0.2245998-0.2655997-0.5790997-0.3965001-1.0468998-0.3965001h-1.6639996V8.2109003z M23.4834003,12.5723V4.1543002h2.8594112
			c1.0282879,0,1.8691883,0.3378997,2.5234871,0.9979997c0.6543007,0.6426001,0.9902,1.4921999,0.9902,2.5313001V9.0625
			c0,1.0370998-0.3358994,1.8866997-0.9902,2.5292997c-0.6542988,0.6601-1.4951992,0.9805002-2.5234871,0.9805002H23.4834003z
			 M25.1651001,5.4569998v5.8144999h1.1034985c0.5986004,0,1.0645008-0.2089996,1.4014015-0.6054993
			C28.0058994,10.2518997,28.1748123,9.7226,28.1748123,9.0625V7.6659999c0-0.6620998-0.1689129-1.1914001-0.5048122-1.5858998
			c-0.3369007-0.4159999-0.8028011-0.6231003-1.4014015-0.6231003H25.1651001z M36.3232994,9.0801001h-3.4951019V12.5723h-1.6630974
			V4.1543002h5.7383003v1.3026996h-4.0752029v2.3203001h3.4951019V9.0801001z"/>
	</g>
	<g>
		<path class="st0" d="M30.9033985,37.2812004c-0.9345856,0-2.0742989,0.1348-3.4013996,0.3809013
			c-1.8505993-2.0020027-3.7763996-4.8906021-5.1406002-7.740202c1.3457012-5.7577991,0.6738014-6.5702991,0.3740005-6.9473
			c-0.3174-0.4141006-0.7655869-1.0762005-1.2705002-1.0762005c-0.2245998,0-0.8036995,0.0938015-1.0282993,0.1680012
			c-0.5977001,0.2089996-0.8964996,0.6620998-1.1581993,1.2479992c-0.7110004,1.6973,0.2792988,4.5664997,1.2704983,6.7950001
			C19.6894989,33.5839996,18.25,37.7168007,16.7178116,41.097599c-3.8309994,1.7735023-5.869112,3.5098-6.0381117,5.1719017
			C10.6054993,46.8730011,10.7558994,47.7598,11.8018122,48.5527c0.2802877,0.2266006,0.6161871,0.339901,0.9726877,0.339901
			c0.8973999,0,1.7753124-0.6797028,2.8211994-2.152401c0.7491131-1.0760994,1.5704002-2.5293007,2.4111996-4.3418007
			c2.7109127-1.1893997,6.0566006-2.2831993,8.9336014-2.8866997c1.5887985,1.5469017,3.0283127,2.339901,4.2626991,2.339901
			c0.8954983,0,1.681612-0.4160995,2.2422009-1.2266006c0.5790977-0.8125,0.7098999-1.5684013,0.392498-2.1894989
			C33.4454002,37.6621017,32.4921989,37.2812004,30.9033985,37.2812004L30.9033985,37.2812004z M12.7919998,47.1758003
			c-0.4667997-0.3788986-0.4471874-0.6231003-0.4296999-0.7168007c0.0556993-0.5663986,0.9355993-1.5684013,3.1026001-2.794899
			C13.8203993,46.722599,12.9424,47.1190987,12.7919998,47.1758003L12.7919998,47.1758003z M21.0908985,23.7479992
			c0.0556011-0.0194988,1.0654011,1.1329002,0.1123009,3.2852001
			C19.7451992,25.5429993,20.9970989,23.7851009,21.0908985,23.7479992L21.0908985,23.7479992z M19.0156994,40.1152
			c1.0107002-2.4530983,1.9813995-5.1913986,2.6924-7.7206993c1.1396008,2.0566978,2.5039005,4.0566978,3.8680992,5.6620979
			C23.4268131,38.5663986,21.1280003,39.3027,19.0156994,40.1152L19.0156994,40.1152z M32.0625,39.642601
			c-0.3183002,0.4354973-0.9902,0.4354973-1.2334003,0.4354973c-0.5419006,0-0.7294006-0.322197-1.5517006-0.964798
			c0.6718998-0.0741997,1.3085995-0.0937996,1.8309994-0.0937996c0.8974991,0,1.0469017,0.1328011,1.1777992,0.1894989
			C32.267601,39.2831993,32.2109985,39.4160004,32.0625,39.642601L32.0625,39.642601z"/>
	</g>
</g>
</svg>
