<?xml version="1.0" encoding="utf-8"?>
<!-- Generator: Adobe Illustrator 24.1.2, SVG Export Plug-In . SVG Version: 6.00 Build 0)  -->
<svg version="1.1" id="phone" xmlns="http://www.w3.org/2000/svg" xmlns:xlink="http://www.w3.org/1999/xlink" x="0px" y="0px"
	 viewBox="0 0 105 105" style="enable-background:new 0 0 105 105;" xml:space="preserve">
<style type="text/css">
	.st0{fill:none;stroke:#000D20;stroke-width:3.1338236;stroke-miterlimit:10;}
	.st1{fill:#000D20;}
</style>
<path class="st0" d="M2.5,52.5000381C2.5,24.8856869,24.8858452,2.5,52.4996071,2.5
	C80.1141586,2.5,102.5,24.8856869,102.5,52.5000381S80.1141586,102.5,52.4996071,102.5
	C24.8858452,102.5,2.5,80.1143875,2.5,52.5000381z"/>
<path class="st1" d="M52.7302589,27.6021824c-33.2349091,0-28.6875725,20.1963062-28.6875725,20.1963062h15.1691971
	c-0.0007858-10.1850014,9.6217766-9.9711952,13.5179863-9.9711952c3.8966713,0,13.5192299-0.2138062,13.5184517,9.9711952
	h15.1691132C81.4174347,47.7984886,85.9644547,27.6021824,52.7302589,27.6021824z"/>
<rect x="23.7435665" y="49.3654099" class="st1" width="15.6691189" height="3.1338463"/>
<rect x="66.0501862" y="49.3654099" class="st1" width="15.6691208" height="3.1338463"/>
<path class="st1" d="M63.9299927,53.0200195C60.4400024,51.460022,56.5700073,50.5900269,52.5,50.5900269
	c-3.9000244,0-7.5999756,0.789978-10.9699707,2.2299805C31.75,56.9799805,24.8200073,66.5300293,24.460022,77.7399902H80.539978
	C80.1799927,66.7000122,73.460022,57.2800293,63.9299927,53.0200195z M52.7299805,56.6400146
	c4.2000122,0,7.6000366,3.3999634,7.6000366,7.5899658c0,4.2000122-3.4000244,7.6000366-7.6000366,7.6000366
	c-4.1900024,0-7.5899658-3.4000244-7.5899658-7.6000366C45.1400146,60.039978,48.539978,56.6400146,52.7299805,56.6400146z"/>
<path class="st1" d="M63.9299927,53.0200195c-0.1499634-7.1900024-1.3699951-12.6100464-11.2000122-12.6100464
	c-9.7299805,0-11.0199585,5.3099976-11.1999512,12.4100342c-0.0200195,1.0800171-0.0200195,2.210022-0.0200195,3.3599854
	c0,8.710022,5.0200195,15.7700195,11.2199707,15.7700195c6.2000122,0,11.2200317-7.0599976,11.2200317-15.7700195
	C63.9500122,55.0999756,63.9500122,54.039978,63.9299927,53.0200195z M52.7299805,71.8300171
	c-4.1900024,0-7.5899658-3.4000244-7.5899658-7.6000366c0-4.1900024,3.3999634-7.5899658,7.5899658-7.5899658
	c4.2000122,0,7.6000366,3.3999634,7.6000366,7.5899658C60.3300171,68.4299927,56.9299927,71.8300171,52.7299805,71.8300171z"/>
</svg>
