<?xml version="1.0" encoding="utf-8"?>
<!-- Generator: Adobe Illustrator 24.1.2, SVG Export Plug-In . SVG Version: 6.00 Build 0)  -->
<svg version="1.1" id="Layer_1" xmlns="http://www.w3.org/2000/svg" xmlns:xlink="http://www.w3.org/1999/xlink" x="0px" y="0px"
	 viewBox="0 0 65.8461609 65.8461304" style="enable-background:new 0 0 65.8461609 65.8461304;" xml:space="preserve">

<path class="krug1" d="M32.9230652,0C14.7692261,0,0,14.7692261,0,32.9230957
	c0,18.1538086,14.7692261,32.9230347,32.9230652,32.9230347c18.1538696,0,32.9230957-14.7692261,32.9230957-32.9230347
	C65.8461609,14.7692261,51.0769348,0,32.9230652,0L32.9230652,0z"/>
<path class="krug2" d="M32.9232903,58.4230652c-14.0610466,0-25.5002098-11.4391632-25.5002098-25.5002098
	c0-14.060627,11.4391632-25.4997902,25.5002098-25.4997902c14.060627,0,25.4997902,11.4391632,25.4997902,25.4997902
	C58.4230804,46.983902,46.9839172,58.4230652,32.9232903,58.4230652z"/>
<polygon class="treug" points="46.8255196,39.4545517 19.0206413,39.4545517 32.9230804,23.0643082 "/>
</svg>
