<?xml version="1.0" encoding="utf-8"?>
<!-- Generator: Adobe Illustrator 24.1.2, SVG Export Plug-In . SVG Version: 6.00 Build 0)  -->
<svg version="1.1" id="Layer_1" xmlns="http://www.w3.org/2000/svg" xmlns:xlink="http://www.w3.org/1999/xlink" x="0px" y="0px"
	 viewBox="0 0 160 90" style="enable-background:new 0 0 160 90;" xml:space="preserve">
<style type="text/css">
	.st0{fill:#333B41;}
	.st1{fill:#FFFFFF;}
	.st2{fill:#FF725E;}
</style>
<path class="st0" d="M156.9695129,90H3.030488C1.3567957,90,0,88.6432037,0,86.9695129V3.0303848
	C0,1.3567494,1.3567494,0,3.0303848,0h153.9391327C158.6432037,0,160,1.3567955,160,3.0304878v83.9390259
	C160,88.6432037,158.6432037,90,156.9695129,90z"/>
<g>
	<path class="st1" d="M9.1456604,83.1911774v0.2567215H7.9418173v-0.2030106l0.6488142-0.6161194
		c0.1585693-0.1514893,0.1865168-0.2471542,0.1865168-0.3380051c0-0.1493073-0.1026745-0.2357788-0.303503-0.2357788
		c-0.158494,0-0.2916765,0.0537033-0.3825245,0.1703186l-0.2122035-0.1633148
		c0.1258006-0.1703186,0.3523917-0.2707367,0.6204906-0.2707367c0.3545761,0,0.583353,0.179512,0.583353,0.4690018
		c0,0.158493-0.0441437,0.3034286-0.2706594,0.5156326l-0.4362345,0.4152908H9.1456604z"/>
	<path class="st1" d="M9.3097286,82.3816147c0-0.1166153,0.0861015-0.1938248,0.1912622-0.1938248
		c0.1048584,0,0.1912622,0.0772095,0.1912622,0.1938248c0,0.1117859-0.0864038,0.1934433-0.1912622,0.1934433
		C9.3958302,82.575058,9.3097286,82.4934006,9.3097286,82.3816147z M9.3097286,83.2706528
		c0-0.1169891,0.0861015-0.1935196,0.1912622-0.1935196c0.1048584,0,0.1912622,0.0765305,0.1912622,0.1935196
		c0,0.1117859-0.0864038,0.1934433-0.1912622,0.1934433C9.3958302,83.4640961,9.3097286,83.3824387,9.3097286,83.2706528z"/>
	<path class="st1" d="M10.452178,81.8144531v1.6334457h-0.303051v-1.3789063H9.8037405v-0.2545395H10.452178z"/>
	<path class="st1" d="M12.2316904,83.0771332h-0.2894917v0.3707657h-0.2938604v-0.3707657h-0.8960466v-0.2103958l0.804822-1.0522842
		h0.3244448l-0.7584944,1.0059509h0.5344639v-0.3291855h0.2846708v0.3291855h0.2894917V83.0771332z"/>
</g>
<g>
	<rect x="14.8998671" y="82.4239502" class="st1" width="123.9169083" height="0.5649722"/>
</g>
<g>
	<rect x="14.8072119" y="81.815506" class="st2" width="38.7241135" height="1.5065925"/>
</g>
<g>
	<path class="st2" d="M54.7814217,82.70681c0,1.0412064-0.8441429,1.8853455-1.8853493,1.8853455
		c-1.0412827,0-1.8853531-0.8441391-1.8853531-1.8853455c0-1.0412827,0.8440704-1.8854294,1.8853531-1.8854294
		C53.9372787,80.8213806,54.7814217,81.6655273,54.7814217,82.70681z"/>
</g>
<g>
	<path class="st1" d="M141.9377594,82.6883545c0,0.3248215-0.2637329,0.5300217-0.5973663,0.5300217
		c-0.4454193,0-0.7069702-0.2868576-0.7069702-0.8121338c0-0.5601501,0.3266296-0.8680191,0.8003845-0.8680191
		c0.1633148,0,0.3196869,0.0349503,0.429306,0.1047821l-0.1118774,0.228775
		c-0.0886536-0.0584564-0.1959991-0.0793991-0.3104248-0.0793991c-0.3078766,0-0.5016937,0.1916428-0.5016937,0.5624161v0.0025558
		c0.0982208-0.1144257,0.2545319-0.1703186,0.4362335-0.1703186
		C141.697525,82.1870346,141.9377594,82.3827438,141.9377594,82.6883545z M141.6438141,82.7023621
		c0-0.1703186-0.1283569-0.277359-0.3265533-0.277359c-0.1960754,0-0.3314514,0.1187897-0.3314514,0.2799225
		c0,0.1537476,0.1213684,0.2751007,0.3383942,0.2751007C141.5132751,82.9800262,141.6438141,82.8726883,141.6438141,82.7023621z"/>
	<path class="st1" d="M142.0852509,82.1285782c0-0.1166077,0.0860291-0.1939011,0.1912689-0.1939011
		c0.1047821,0,0.1912537,0.0772934,0.1912537,0.1939011c0,0.1117935-0.0864716,0.1934509-0.1912537,0.1934509
		C142.1712799,82.3220291,142.0852509,82.2403717,142.0852509,82.1285782z M142.0852509,83.0175476
		c0-0.1169128,0.0860291-0.1934509,0.1912689-0.1934509c0.1047821,0,0.1912537,0.0765381,0.1912537,0.1934509
		c0,0.1118622-0.0864716,0.1935196-0.1912537,0.1935196C142.1712799,83.2110672,142.0852509,83.1294098,142.0852509,83.0175476z"/>
	<path class="st1" d="M142.6631165,82.3782959c0-0.536644,0.2938538-0.8400726,0.6811981-0.8400726
		c0.3898315,0,0.6837616,0.3034286,0.6837616,0.8400726c0,0.5362701-0.2939301,0.8400803-0.6837616,0.8400803
		C142.9569702,83.2183762,142.6631165,82.914566,142.6631165,82.3782959z M143.7223969,82.3782959
		c0-0.3942719-0.1537476-0.5763474-0.3780823-0.5763474c-0.2214661,0-0.3755951,0.1820755-0.3755951,0.5763474
		c0,0.3942795,0.154129,0.5760498,0.3755951,0.5760498C143.5686493,82.9543457,143.7223969,82.7725754,143.7223969,82.3782959z"/>
	<path class="st1" d="M144.2314758,82.3782959c0-0.536644,0.2938538-0.8400726,0.6811981-0.8400726
		c0.3899078,0,0.6837769,0.3034286,0.6837769,0.8400726c0,0.5362701-0.293869,0.8400803-0.6837769,0.8400803
		C144.5253296,83.2183762,144.2314758,82.914566,144.2314758,82.3782959z M145.2908325,82.3782959
		c0-0.3942719-0.1537476-0.5763474-0.3781586-0.5763474c-0.2213898,0-0.3755188,0.1820755-0.3755188,0.5763474
		c0,0.3942795,0.154129,0.5760498,0.3755188,0.5760498C145.137085,82.9543457,145.2908325,82.7725754,145.2908325,82.3782959z"/>
</g>
<g>
	<polygon class="st1" points="148.2351685,82.2767487 147.6701965,82.2767487 147.6701965,80.6480484 149.2956543,80.6480484 
		149.2956543,81.2130203 148.2351685,81.2130203 	"/>
</g>
<g>
	<polygon class="st1" points="149.2970886,84.4024048 147.6683807,84.4024048 147.6683807,82.7770157 148.2333527,82.7770157 
		148.2333527,83.8374329 149.2970886,83.8374329 	"/>
</g>
<g>
	<polygon class="st1" points="151.8909912,84.4024048 150.2652283,84.4024048 150.2652283,83.8374329 151.3260193,83.8374329 
		151.3260193,82.7733231 151.8909912,82.7733231 	"/>
</g>
<g>
	<polygon class="st1" points="151.8924255,82.2734375 151.3274536,82.2734375 151.3274536,81.2130203 150.2637177,81.2130203 
		150.2637177,80.6480484 151.8924255,80.6480484 	"/>
</g>
<g>
	<g>
		<path class="st1" d="M130.8053894,5.0576334c-0.0227509-0.0225987,0.2863312-0.0453482,0.8687744-0.0751033
			c0.5813141-0.0290022,1.4433899-0.0650849,2.50177-0.0827122l0.1565399-0.0026364l0.0014343,0.1605272
			c0.0110779,1.2620726,0.02388,2.7126951,0.0376587,4.2815104l0.0042267,0.4757814l-0.338089-0.3374767
			c-0.1429596-0.1427498-0.295517-0.2949152-0.4494171-0.4485874c-0.3908844-0.3926935-0.7724304-0.7759705-1.1425171-1.1477976
			l0.2644806,0.0071559c-0.6339722,0.5590215-1.2348022,1.0887389-1.7902832,1.5785327l-0.2908478,0.2564974l0.0047455-0.3841057
			c0.0164185-1.3189468,0.0548401-2.4122057,0.0870056-3.1566129
			C130.7537842,5.4367676,130.7796326,5.0317202,130.8053894,5.0576334
			c0.0256958,0.0259891,0.0516052,0.4805279,0.0845184,1.2348785c0.0320892,0.7557821,0.0705109,1.8033161,0.0869293,3.0467072
			l-0.2859497-0.1276083c0.546814-0.4994354,1.1382294-1.0396242,1.7623444-1.6097193l0.1342316-0.1226363l0.1304016,0.1297927
			c0.3718262,0.3700943,0.7550964,0.7516394,1.1478729,1.1425247c0.153595,0.1538982,0.3058319,0.306365,0.4485016,0.4494162
			l-0.333786,0.1382303c0.0138702-1.5688152,0.0265961-3.0194378,0.0377502-4.2815104l0.1577301,0.1577406
			c-0.9878693-0.0176272-1.8110657-0.0536351-2.4034576-0.0826368
			C131.1812134,5.102982,130.8281403,5.0802326,130.8053894,5.0576334z"/>
	</g>
</g>
<g>
	<g>
		<path class="st1" d="M143.1999054,5.5923986c0.0393982-0.0176272-0.2736053,0.3582678-0.8349609,1.0440683
			c-0.5593109,0.6822605-1.389679,1.6946907-2.3963776,2.8280249l-0.3244476,0.3652735l-0.0021057-0.4905462
			c-0.0027924-0.6677971-0.005722-1.3822989-0.0088959-2.1233163l0.0000763-0.2077594l0.0601196,0.1411676
			c-0.5224152-0.5076461-1.0240326-0.9951043-1.4943237-1.4522042l-0.3352051-0.3258009l0.4651489,0.0061021
			c1.472168,0.0191336,2.7367249,0.0861769,3.5867462,0.1311488C142.7695465,5.5543571,143.2386932,5.5754495,143.1999054,5.5923986
			s-0.5860596,0.0319395-1.4584656,0.06742c-0.8762207,0.0345764-2.0476837,0.0870056-3.4147644,0.0891147l0.1299438-0.3196235
			c0.4748077,0.4525051,0.9811707,0.9349914,1.5085602,1.4374399l0.0601807,0.0573258v0.0840678l0.0000763,0.2077594
			c-0.0030823,0.7410173-0.0061035,1.4555192-0.0088806,2.1233163l-0.326416-0.1251984
			c0.9502106-1.0420341,1.8052063-1.9030523,2.4418945-2.5503597
			C142.7666779,6.0198188,143.1605072,5.6100259,143.1999054,5.5923986z"/>
	</g>
</g>
<g>
	<g>
		<path class="st1" d="M143.1999054,5.5923986c0.0419617,0.0998869-0.6786499,0.4977779-1.6092682,0.8886633
			c-0.9309235,0.3910365-1.7194061,0.6268935-1.7613525,0.5270061c-0.0418854-0.0998116,0.6784821-0.4977026,1.6094055-0.8886633
			C142.3693237,5.728519,143.1579437,5.4925113,143.1999054,5.5923986z"/>
	</g>
</g>
<g>
	<g>
		<path class="st1" d="M149.2413483,5.0577087c-0.0014343-0.0192089,0.2137756-0.0675707,0.6013489,0.0005274
			c0.3791351,0.067646,0.9507446,0.2934842,1.4060364,0.8579292c0.4555817,0.5447836,0.7318268,1.479022,0.404068,2.4027138
			c-0.2978516,0.9153299-1.2696838,1.7189465-2.4110107,1.7081747c-1.1418457,0.0111485-2.1139679-0.7927694-2.4118195-1.7081747
			c-0.3278351-0.9238424-0.0514526-1.8581562,0.4041443-2.4028645c0.4552917-0.564445,1.026886-0.7901325,1.4060211-0.8577785
			C149.02771,4.9901381,149.2428436,5.0384998,149.2413483,5.0577087c0.0010529,0.0342751-0.212204,0.0401506-0.5639954,0.1486254
			c-0.3455353,0.1071186-0.8448181,0.3546519-1.2226715,0.8778915c-0.3792877,0.5059891-0.5838165,1.3255754-0.2849731,2.111414
			c0.2750244,0.7795115,1.1052246,1.4479113,2.0720062,1.4390974c0.9664154,0.0085125,1.7963104-0.6596613,2.0712738-1.4390974
			c0.2988281-0.7856879,0.0944519-1.6052742-0.2848206-2.1112633c-0.3778534-0.523315-0.8771362-0.7709236-1.2226868-0.8780422
			C149.4537048,5.0978594,149.2403564,5.0919838,149.2413483,5.0577087z"/>
	</g>
</g>
<g>
	<g>
		<path class="st1" d="M150.0536194,8.4608002c-0.0761566,0.0762339-0.5920868-0.316083-1.1551819-0.8777409l-0.0575409-0.0574012
			V7.4442267V7.4304414c0-0.8018084,0.0878296-1.4516773,0.1961517-1.4516773s0.1961517,0.649869,0.1961517,1.4516773v0.0137854
			l-0.0573883-0.1386065C149.7374573,7.8687844,150.1297913,8.384717,150.0536194,8.4608002z"/>
	</g>
</g>
<g>
	<g>
		<path class="st1" d="M91.2874527,8.3036623c0,0.1083241-16.4437103,0.1961584-36.7232819,0.1961584
			c-20.2867279,0-36.7268982-0.0878344-36.7268982-0.1961584s16.4401703-0.1961584,36.7268982-0.1961584
			C74.8437424,8.1075039,91.2874527,8.1953382,91.2874527,8.3036623z"/>
	</g>
</g>
<g>
	<circle class="st1" cx="11.4737234" cy="8.3036623" r="2.8964248"/>
</g>
</svg>
