<?xml version="1.0" encoding="utf-8"?>
<!-- Generator: Adobe Illustrator 24.1.2, SVG Export Plug-In . SVG Version: 6.00 Build 0)  -->
<svg version="1.1" id="Layer_1" xmlns="http://www.w3.org/2000/svg" xmlns:xlink="http://www.w3.org/1999/xlink" x="0px" y="0px"
	 viewBox="0 0 5.6692052 5.66927" style="enable-background:new 0 0 5.6692052 5.66927;" xml:space="preserve">
<style type="text/css">
	.st0{fill:#F07E4D;}
</style>
<path id="XMLID_98_" class="st0" d="M1.796263,3.5411115C1.7721694,3.5431123,1.7481673,3.5442109,1.7240584,3.5442109
	c-0.0659027,0-0.1299744-0.0095997-0.1927338-0.0242004L0.0790999,4.978848c-0.0713043,0.0715008-0.0713043,0.1876373,0,0.2591457
	l0.3758392,0.3776436c0.0713043,0.0715103,0.1867676,0.0715103,0.2578583,0l1.7453918-1.7529507L2.1347334,3.5121121
	L1.796263,3.5411115z"/>
<path id="XMLID_97_" class="st0" d="M5.6179795,1.2039857c-0.0682068-0.0684299-0.1784668-0.0684299-0.2465973,0
	L4.4302659,2.1493268c-0.0890045,0.0893593-0.2332764,0.0893593-0.3223267,0c-0.0886993-0.0892906-0.0886993-0.234066,0-0.3233299
	l0.9364471-0.9404926c0.070694-0.0711403,0.070694-0.1864605,0-0.257761c-0.071106-0.0710506-0.1858368-0.0710506-0.2565765,0
	L3.8517287,1.5681405c-0.0890045,0.0894508-0.2331238,0.0894508-0.3221741,0c-0.0888977-0.0892506-0.0888977-0.2341347,0-0.3233185
	l0.9409182-0.9452477c0.0682983-0.0685406,0.0682983-0.1795425,0-0.2481689c-0.0682068-0.0685406-0.1786652-0.0685406-0.246994,0
	L3.164839,1.1149068C2.9102919,1.370749,2.8298934,1.7298684,2.9123061,2.0566411l0.7096863,0.7129383
	C3.947264,2.8520589,4.3049455,2.7712789,4.5591722,2.5156198l1.0588074-1.0634422
	C5.6862779,1.383637,5.6862779,1.2725186,5.6179948,1.2039857H5.6179795z"/>
<path id="XMLID_96_" class="st0" d="M0.47563,0.1475205C0.4394362,0.1110597,0.3903334,0.0910802,0.3399336,0.0910802
	c-0.0106964,0-0.0214996,0.0008812-0.0319977,0.0027008C0.2466414,0.1042008,0.1940596,0.1437211,0.1670363,0.1999764
	c-0.3101044,0.643858-0.1804962,1.4142838,0.3228912,1.9199696l0.9005737,0.9045277
	C1.479399,3.113833,1.5994856,3.1632962,1.7240736,3.1632962c0.0133972,0,0.0267029-0.0005589,0.0399933-0.0016994
	L2.2869246,3.116776l2.279999,2.4707489C4.602324,5.6259351,4.6519303,5.6482358,4.7041459,5.6492658
	c0.0008087,0,0.0019989,0,0.003006,0c0.0511017,0,0.1000061-0.0202599,0.1362457-0.0564594l0.3904877-0.3923302
	c0.0361023-0.0361595,0.0561981-0.0852394,0.0561981-0.1363907c0-0.0511398-0.0202026-0.1002522-0.0561066-0.1364155
	L0.47563,0.1475205z"/>
</svg>
