<?xml version="1.0" encoding="utf-8"?>
<!-- Generator: Adobe Illustrator 24.1.2, SVG Export Plug-In . SVG Version: 6.00 Build 0)  -->
<svg version="1.1" id="Layer_1" xmlns="http://www.w3.org/2000/svg" xmlns:xlink="http://www.w3.org/1999/xlink" x="0px" y="0px"
	 viewBox="0 0 500 500" style="enable-background:new 0 0 500 500;" xml:space="preserve">
<style type="text/css">
	.st0{fill:#F9804B;}
	.st1{opacity:0.7;fill:#FFFFFF;enable-background:new    ;}
	.st2{fill:none;stroke:#263238;stroke-width:1.2965;stroke-miterlimit:10;}
	.st3{fill:#333B41;}
	.st4{fill:#FFFFFF;stroke:#263238;stroke-width:1.2965;stroke-miterlimit:10;}
	.st5{fill:#FFFFFF;}
	.st6{clip-path:url(#SVGID_2_);fill:#F9804B;}
	.st7{opacity:0.3;clip-path:url(#SVGID_4_);fill:#FFFFFF;enable-background:new    ;}
	.st8{clip-path:url(#SVGID_6_);}
	.st9{fill:none;stroke:#263238;stroke-width:1.2965;stroke-linecap:round;stroke-linejoin:round;stroke-miterlimit:10;}
	.st10{display:none;}
	.st11{display:inline;}
	.st12{fill:none;stroke:#263238;stroke-linecap:round;stroke-linejoin:round;stroke-miterlimit:10;}
	.st13{fill:#4B9200;}
	.st14{fill:#333B41;stroke:#263238;stroke-width:1.2965;stroke-linecap:round;stroke-linejoin:round;stroke-miterlimit:10;}
	.st15{clip-path:url(#SVGID_8_);fill:#F9804B;}
	.st16{opacity:0.5;clip-path:url(#SVGID_10_);fill:#FFFFFF;enable-background:new    ;}
	.st17{fill:#F9804B;stroke:#263238;stroke-width:1.2965;stroke-linecap:round;stroke-linejoin:round;stroke-miterlimit:10;}
	.st18{clip-path:url(#SVGID_12_);fill:#F9804B;}
	.st19{opacity:0.5;clip-path:url(#SVGID_14_);fill:#FFFFFF;enable-background:new    ;}
	
		.st20{clip-path:url(#SVGID_16_);fill:none;stroke:#263238;stroke-width:1.2965;stroke-linecap:round;stroke-linejoin:round;stroke-miterlimit:10;}
	.st21{fill:#FFFFFF;stroke:#263238;stroke-width:1.2965;stroke-linecap:round;stroke-linejoin:round;stroke-miterlimit:10;}
	.st22{clip-path:url(#SVGID_18_);fill:#F9804B;}
	.st23{opacity:0.5;clip-path:url(#SVGID_20_);fill:#FFFFFF;enable-background:new    ;}
	.st24{clip-path:url(#SVGID_22_);fill:#F9804B;}
	.st25{opacity:0.5;clip-path:url(#SVGID_24_);fill:#FFFFFF;enable-background:new    ;}
	.st26{clip-path:url(#SVGID_26_);fill:#F9804B;}
	.st27{opacity:0.5;clip-path:url(#SVGID_28_);fill:#FFFFFF;enable-background:new    ;}
	.st28{clip-path:url(#SVGID_30_);fill:#F9804B;}
	.st29{opacity:0.5;clip-path:url(#SVGID_32_);fill:#FFFFFF;enable-background:new    ;}
	.st30{fill:#F9804B;stroke:#263238;stroke-width:1.2965;stroke-miterlimit:10;}
	.st31{fill:none;stroke:#263238;stroke-width:3.8894;stroke-linecap:round;stroke-linejoin:round;stroke-miterlimit:10;}
	.st32{fill:none;stroke:#263238;stroke-width:1.2965;stroke-linecap:round;stroke-miterlimit:10;}
	.st33{fill:none;}
	.st34{enable-background:new    ;}
</style>
<g id="Background_Simple">
	<g>
		<path class="st0" d="M5.9,265.4c0,0,2.7,84.7,73.3,141.2s168.4,60.5,247.6,65.9S466.8,433,476,365.1
			c9.2-67.9-51.3-87.8-84.2-165.1C359,122.6,361.9,97.2,292.5,49.7C223,2.2,114.4,31.4,57.4,112.8S5.9,265.4,5.9,265.4z"/>
		<path class="st1" d="M5.9,265.4c0,0,2.7,84.7,73.3,141.2s168.4,60.5,247.6,65.9S466.8,433,476,365.1
			c9.2-67.9-51.3-87.8-84.2-165.1C359,122.6,361.9,97.2,292.5,49.7C223,2.2,114.4,31.4,57.4,112.8S5.9,265.4,5.9,265.4z"/>
	</g>
</g>
<g id="Floor">
	<g>
		<line class="st2" x1="38.1" y1="402.2" x2="27.4" y2="402.2"/>
		<line class="st2" x1="470.7" y1="402.2" x2="55" y2="402.2"/>
	</g>
</g>
<g id="Yarn_Ball">
	<g>
		<ellipse class="st3" cx="314.3" cy="437.2" rx="35.4" ry="9.7"/>
		<g>
			<path class="st4" d="M131.6,459.3c-36.8,0-42.2-5.3-42.8-9.6c-0.2-1.9,0.3-3.5,1.7-4.9c9.9-10.4,67-6,146.1,0.1
				c11,0.9,22.4,1.7,34.1,2.6c79.9,5.9,112,5.2,118.6-2.9c1.4-1.6,1.6-3.7,0.9-6.5c-3.2-11.6-45.5-11.7-61.5-10.8
				c-0.8,0-1.4-0.5-1.5-1.3c0-0.8,0.5-1.4,1.3-1.5c6.1-0.4,60-3.1,64.3,12.8c1,3.7,0.5,6.6-1.4,9c-7.5,9.1-38,10-121,3.9
				c-11.7-0.9-23.1-1.8-34.1-2.6c-75.4-5.8-134.9-10.4-143.9-0.9c-0.8,0.8-1.1,1.7-0.9,2.7c0.3,2.7,6.9,8.9,60.5,6.8
				c29.9-1.2,60-4.5,60.3-4.5c0.8-0.1,1.4,0.5,1.5,1.2c0.1,0.8-0.5,1.4-1.2,1.5c-0.3,0-30.5,3.3-60.5,4.5
				C144.4,459.1,137.6,459.3,131.6,459.3z"/>
		</g>
		<g>
			<g>
				<ellipse id="XMLID_6_" class="st5" cx="301.1" cy="404" rx="41.7" ry="41.7"/>
			</g>
			<g>
				<g>
					<g>
						<defs>
							<circle id="SVGID_1_" cx="301.1" cy="404" r="41.7"/>
						</defs>
						<clipPath id="SVGID_2_">
							<use xlink:href="#SVGID_1_"  style="overflow:visible;"/>
						</clipPath>
						<path class="st6" d="M301.1,445.7c23,0,41.7-18.7,41.7-41.7c0-8.7-2.7-16.8-7.2-23.5c-0.5,18.2-10.5,45-62.6,54.3
							C280.4,441.5,290.3,445.7,301.1,445.7z"/>
					</g>
				</g>
			</g>
			<g>
				<g>
					<g>
						<defs>
							<circle id="SVGID_3_" cx="301.1" cy="404" r="41.7"/>
						</defs>
						<clipPath id="SVGID_4_">
							<use xlink:href="#SVGID_3_"  style="overflow:visible;"/>
						</clipPath>
						<path class="st7" d="M301.1,445.7c23,0,41.7-18.7,41.7-41.7c0-8.7-2.7-16.8-7.2-23.5c-0.5,18.2-10.5,45-62.6,54.3
							C280.4,441.5,290.3,445.7,301.1,445.7z"/>
					</g>
				</g>
			</g>
			<g>
				<g>
					<g>
						<defs>
							<circle id="SVGID_5_" cx="301.1" cy="404" r="41.7"/>
						</defs>
						<clipPath id="SVGID_6_">
							<use xlink:href="#SVGID_5_"  style="overflow:visible;"/>
						</clipPath>
						<g class="st8">
							<path class="st9" d="M321.6,420.3c-12.2-12-26.3-15.7-26.3-15.7S309.4,408.3,321.6,420.3c0.7,0,1.5,0,2.2,0
								c5.8-5.8,9.8-11.5,12.6-16.4c-19.5-20.7-38.5-18.6-38.5-18.6s19-2.1,38.5,18.6c1.1-1.9,2-3.7,2.7-5.4
								c-8.1-11.4-22-19.1-29.6-20.3l-1.7-0.4c-5.1-0.8-8.2-0.1-8.2-0.1s3.1-0.7,8.2,0.1l5-13.9c-2.3-0.7-4.7-1.1-7.2-1.4
								c-3.2,5.2-11.5,21.8-11.5,54.9c0-33,8.3-49.7,11.5-54.9c-1.4-0.1-2.8-0.2-4.2-0.2c-1.6,0-3.2,0.1-4.7,0.3
								c-4.9,7.4-14.3,25-14.9,51.4C291.5,417.4,304.5,420.1,321.6,420.3z M331.1,411.8c-16.6-16.2-34.9-17.1-34.9-17.1
								S314.5,395.6,331.1,411.8z"/>
							<path class="st9" d="M281.7,414c0.6-26.4,10-43.9,14.9-51.4c-3.9,0.4-7.7,1.4-11.2,2.9c-5.3,7.8-13.7,23.1-14.4,43.8
								C274.1,410.9,277.6,412.5,281.7,414z"/>
							<path class="st9" d="M285.4,365.5c-14.3,5.9-24.6,19.6-25.7,35.8c2.5,2.4,6.2,5.2,11.4,8
								C271.7,388.6,280.1,373.2,285.4,365.5z"/>
							<path class="st9" d="M339.1,398.6c1-2.4,1.8-4.5,2.3-6.2c-1.8-6-4.8-11.5-8.9-16.1l-3.2,10.8l3.2-10.8
								c-2.6-2.9-5.5-5.4-8.8-7.5l-3.6,13.3l3.6-13.3c-3.4-2.2-7.1-3.8-11-5l-5,13.9C315.3,379,327.1,383.5,339.1,398.6z"/>
							<path class="st9" d="M343,405.9c0-0.6,0-1.2,0-1.8c0-4.1-0.6-8-1.7-11.7c-0.5,1.7-1.2,3.8-2.3,6.2l0,0l0,0
								c-0.7,1.7-0.7,1.6-1.8,3.6c0.1,0.1-1,1.8-0.9,1.8c-0.1-0.1-1.1,2.1-1.2,2c-2.8,4.9-11.1,14.4-11,14.4c-0.1,0-4.5,4-6.9,6h0.1
								h-0.1c-4,3.3-8.5,6.6-13.8,9.8c0.1,0,0.2,0,0.3-0.1c-0.1,0-0.2,0-0.3,0.1c-4.4,2.7-9.3,5.3-14.8,7.8c4,1.3,8.2,1.9,12.6,1.9
								c0.7,0,1.4,0,2.1-0.1C311.9,441.3,325.4,430.6,343,405.9z"/>
							<path class="st9" d="M343,405.9c-17.6,24.7-31.2,35.4-39.6,39.9C324.9,444.8,342.1,427.5,343,405.9z"/>
							<path class="st9" d="M268.7,430.2c5.1,6.4,12.1,11.3,20,13.8c5.4-2.5,10.4-5.1,14.8-7.8C293.6,438,278,433.5,268.7,430.2z"/>
							<path class="st9" d="M303.5,436.2c5.3-3.2,9.9-6.5,13.8-9.8c-30,3.1-48.5-6.2-56.4-11.5c1.5,5.7,4.2,10.9,7.7,15.4
								C278,433.5,293.6,438,303.5,436.2z"/>
							<path class="st9" d="M317.3,426.3c2.4-2,4.5-4,6.5-6c-0.8,0-1.5,0-2.2,0c0.2,0.2,0.3,0.3,0.5,0.5c-0.2-0.2-0.3-0.3-0.5-0.5
								c-17.1-0.2-30.2-2.9-40-6.4l0,0l0,0c-14.3-5-19.4-10.3-22-12.7c-0.1,0.9-0.1,1.9-0.1,2.9c0,3.7,0.5,7.3,1.4,10.7
								C268.8,420.1,287.3,429.4,317.3,426.3z"/>
						</g>
					</g>
				</g>
			</g>
			<g>
				<ellipse id="XMLID_1_" class="st9" cx="301.1" cy="404" rx="41.7" ry="41.7"/>
			</g>
		</g>
	</g>
</g>
<g id="Plants">
	<g class="st10">
		<g class="st11">
			<g>
				<path class="st12" d="M100.1,342.7l69-58.2c2.6-2.2,6-2.4,8.7-0.5l87,58.8l43.7-29.8c2.3-1.5,5.1-1.6,7.4-0.2l50.3,29.9"/>
				<path class="st12" d="M346.2,330.6l17-6.8c2-0.8,4.1-0.6,6,0.5l31.5,18.5"/>
				<path class="st12" d="M132.9,314.8l-7.6-5c-2.6-1.6-5.8-1.4-8.2,0.6L77,342.7"/>
			</g>
			<line class="st12" x1="71.1" y1="342.8" x2="416.1" y2="342.8"/>
		</g>
		<g class="st11">
			<line class="st12" x1="291.2" y1="329.9" x2="292.7" y2="328.9"/>
			<line class="st12" x1="271.9" y1="342.8" x2="289.3" y2="331.2"/>
		</g>
		<g class="st11">
			<line class="st12" x1="148.1" y1="309.5" x2="151.1" y2="306.9"/>
			<line class="st12" x1="109.1" y1="342.8" x2="144.1" y2="312.9"/>
		</g>
	</g>
	<g>
		<path class="st13" d="M377.9,332.6c0,0-2.8-9.3-11.2-12.6c-5.8-2.3-12.4-1.7-18.4-0.7c-11.1,1.9-20.9,6.4-31.4,10.2
			c0,0,4.5-1.7,23,7.4c6.8,3.3,14.6,5.9,22.4,5.7C368.6,342.5,378.2,340.7,377.9,332.6z"/>
		<path class="st13" d="M378.9,305.4c0,0-0.1-9.7-7-15.3c-4.9-3.9-11.4-5.2-17.4-6c-11.2-1.4-21.8,0.1-33,0.6c0,0,4.8-0.3,19.9,13.7
			c5.6,5.2,12.3,9.9,19.8,12C367.1,312.2,376.8,313.2,378.9,305.4z"/>
		<path class="st13" d="M398,341.4c0,0-7.6-6.1-7.6-15c0-6.2,3-12.2,6.2-17.4c5.9-9.7,13.6-17.1,21-25.5c0,0-3.2,3.6-1.6,24.2
			c0.6,7.6,0.1,15.8-2.9,23C410.6,336.4,405.4,344.7,398,341.4z"/>
		<path class="st13" d="M424.8,356.3c0,0-1.1-9.6,5.2-16c4.4-4.4,10.7-6.5,16.6-7.9c11-2.7,21.7-2.5,32.9-3.2c0,0-4.8,0.3-18.2,15.9
			c-4.9,5.8-11.1,11.2-18.3,14.2C437.2,361.7,427.7,363.9,424.8,356.3z"/>
		<path class="st13" d="M423,322c0,0-9.6-1.3-14.2-9c-3.2-5.3-3.7-12-3.6-18.1c0.1-11.3,2.9-21.7,5-32.7c0,0-0.9,4.7,11,21.6
			c4.4,6.2,8.2,13.5,9.3,21.2C431.3,311.2,431,320.9,423,322z"/>
		<path class="st13" d="M450.6,304.7c0,0,6.9,6.8,15.8,5.8c6.2-0.7,11.7-4.4,16.5-8.2c8.9-7,15.3-15.5,22.9-23.9
			c0,0-3.2,3.6-23.8,4.5c-7.6,0.3-15.7,1.7-22.4,5.6C454.2,291.6,446.5,297.7,450.6,304.7z"/>
		<path class="st13" d="M442.7,298c0,0,9.6,1,15.9-5.4c4.4-4.4,6.4-10.8,7.8-16.7c2.5-11,2.2-21.7,2.8-33c0,0-0.2,4.8-15.7,18.4
			c-5.7,5-11.1,11.2-14,18.5C437.2,285.5,435.1,295.1,442.7,298z"/>
		<polyline class="st9" points="408.2,391.9 391.6,350.9 372.4,303.5 		"/>
		<polyline class="st9" points="412.1,384.9 428.7,327.8 446.6,292.6 		"/>
		<line class="st9" x1="418.5" y1="362.4" x2="435.1" y2="352.8"/>
		<line class="st9" x1="428.7" y1="327.8" x2="420.4" y2="309.2"/>
		<line class="st9" x1="439.1" y1="309.3" x2="459.4" y2="300.3"/>
		<line class="st9" x1="394.8" y1="358.6" x2="401.9" y2="330.4"/>
		<line class="st9" x1="385.5" y1="337.2" x2="369.2" y2="328.5"/>
		<path class="st14" d="M416.8,412.4h-13.9c-4.7,0-8.7-3.3-9.6-7.9l-4.9-26h42.9l-4.9,26C425.5,409.1,421.5,412.4,416.8,412.4z"/>
	</g>
</g>
<g id="Character">
	<g>
		<g>
			<g>
				<g>
					<g>
						<path id="XMLID_5_" class="st5" d="M227.1,357.6c-25.9,0-41.5-23-47-43.3l-0.2-0.7c-1.1-4.1,1.4-8.2,5.4-9.3
							c4.1-1.1,8.2,1.4,9.3,5.5l0.1,0.5c4.2,15.4,15.6,33,34,32c7.3-0.4,13.2-3.3,18-8.8c10.1-11.6,14.6-36.7,13.6-49.4
							c-0.3-3.4,2.2-6.3,5.6-6.6c3.4-0.3,6.3,2.2,6.5,5.6c1.1,14.1-0.4,44.5-14.2,60.4c-7.5,8.6-17.2,13.4-28.6,14
							C228.8,357.6,228,357.6,227.1,357.6z"/>
					</g>
					<g>
						<g>
							<g>
								<defs>
									<path id="SVGID_7_" d="M227.1,357.6c-25.9,0-41.5-23-47-43.3l-0.2-0.7c-1.1-4.1,1.4-8.2,5.4-9.3c4.1-1.1,8.2,1.4,9.3,5.5
										l0.1,0.5c4.2,15.4,15.6,33,34,32c7.3-0.4,13.2-3.3,18-8.8c10.1-11.6,14.6-36.7,13.6-49.4c-0.3-3.4,2.2-6.3,5.6-6.6
										c3.4-0.3,6.3,2.2,6.5,5.6c1.1,14.1-0.4,44.5-14.2,60.4c-7.5,8.6-17.2,13.4-28.6,14C228.8,357.6,228,357.6,227.1,357.6z"/>
								</defs>
								<clipPath id="SVGID_8_">
									<use xlink:href="#SVGID_7_"  style="overflow:visible;"/>
								</clipPath>
								<path class="st15" d="M265.9,277.6c-3.3,0.3-5.8,3.2-5.6,6.6c0.5,6.2-0.3,15.3-2.5,24.4c2.6-0.1,5.6,0.2,9,1.2
									c-0.5,6.2-2.4,15.4-8.9,24.3c-11.3,15.7-28.2,20.8-41.4,18.9c-5.9-0.8-12.7-3.9-18.3-7.1c7.5,7.1,17.1,11.8,28.9,11.8
									c0.8,0,1.7,0,2.5-0.1c11.5-0.6,21.1-5.4,28.6-14c13.9-15.9,15.4-46.3,14.2-60.4C272.2,279.8,269.3,277.3,265.9,277.6z"/>
							</g>
						</g>
					</g>
					<g>
						<g>
							<g>
								<defs>
									<path id="SVGID_9_" d="M227.1,357.6c-25.9,0-41.5-23-47-43.3l-0.2-0.7c-1.1-4.1,1.4-8.2,5.4-9.3c4.1-1.1,8.2,1.4,9.3,5.5
										l0.1,0.5c4.2,15.4,15.6,33,34,32c7.3-0.4,13.2-3.3,18-8.8c10.1-11.6,14.6-36.7,13.6-49.4c-0.3-3.4,2.2-6.3,5.6-6.6
										c3.4-0.3,6.3,2.2,6.5,5.6c1.1,14.1-0.4,44.5-14.2,60.4c-7.5,8.6-17.2,13.4-28.6,14C228.8,357.6,228,357.6,227.1,357.6z"/>
								</defs>
								<clipPath id="SVGID_10_">
									<use xlink:href="#SVGID_9_"  style="overflow:visible;"/>
								</clipPath>
								<path class="st16" d="M265.9,277.6c-3.3,0.3-5.8,3.2-5.6,6.6c0.5,6.2-0.3,15.3-2.5,24.4c2.6-0.1,5.6,0.2,9,1.2
									c-0.5,6.2-2.4,15.4-8.9,24.3c-11.3,15.7-28.2,20.8-41.4,18.9c-5.9-0.8-12.7-3.9-18.3-7.1c7.5,7.1,17.1,11.8,28.9,11.8
									c0.8,0,1.7,0,2.5-0.1c11.5-0.6,21.1-5.4,28.6-14c13.9-15.9,15.4-46.3,14.2-60.4C272.2,279.8,269.3,277.3,265.9,277.6z"/>
							</g>
						</g>
					</g>
					<g>
						<path id="XMLID_2_" class="st9" d="M227.1,357.6c-25.9,0-41.5-23-47-43.3l-0.2-0.7c-1.1-4.1,1.4-8.2,5.4-9.3
							c4.1-1.1,8.2,1.4,9.3,5.5l0.1,0.5c4.2,15.4,15.6,33,34,32c7.3-0.4,13.2-3.3,18-8.8c10.1-11.6,14.6-36.7,13.6-49.4
							c-0.3-3.4,2.2-6.3,5.6-6.6c3.4-0.3,6.3,2.2,6.5,5.6c1.1,14.1-0.4,44.5-14.2,60.4c-7.5,8.6-17.2,13.4-28.6,14
							C228.8,357.6,228,357.6,227.1,357.6z"/>
					</g>
				</g>
				<g>
					<path class="st17" d="M212.2,341.8c0.6-2.9-6.2,1.6-11.9,5.8c2.1,1.8,4.4,3.4,6.8,4.7C209.1,349,211.6,344.6,212.2,341.8z"/>
					<path class="st17" d="M227.1,357.6c0.8,0,1.7,0,2.5-0.1c2.5-0.1,5-0.5,7.3-1c-3.2-4.2-7.6-9.7-8.9-10.2
						c-1.5-0.5-4.3,6.7-5.8,11C223.8,357.5,225.5,357.6,227.1,357.6z"/>
					<path class="st17" d="M194.8,310.3l-0.1-0.5c-1.1-4.1-5.2-6.5-9.3-5.5c-4.1,1.1-6.5,5.2-5.4,9.3l0.2,0.7
						c1.8,6.7,4.8,13.7,8.8,20.1l13.9-6.6C199.1,322.5,196.4,316.2,194.8,310.3z"/>
					<path class="st17" d="M258.3,343.5c1.1-1.2,2-2.5,3-3.9c-4.4-1.5-11-3.6-13.4-3.4c-2.9,0.3,1,9.6,3.1,14
						C253.5,348.4,256,346.1,258.3,343.5z"/>
					<path class="st17" d="M258.5,318.6c-0.5,0.9,5.2,5.1,9.1,7.7c1.2-3.6,2.2-7.3,2.9-11.1C265.8,316.2,258.9,317.7,258.5,318.6z"
						/>
					<path class="st17" d="M272.4,301.4c0.3-3.3,0.4-6.5,0.4-9.4c-4,2.2-8.8,5.3-8.8,7.3C264,301.2,268.5,301.5,272.4,301.4z"/>
				</g>
			</g>
			<g>
				<g>
					<g>
						<path id="XMLID_4_" class="st5" d="M209.7,211.2c0,0-11.3,32.8-5.2,58.3s28.4,33.9,28.4,33.9s-16.5,5.8-12.7,14.8
							s18,3.2,22.6,0.3c4.6-2.9,10.4-11.6,11.3-17.4c0.9-5.8,0.6-9,0.6-9s18.8-2,31.6-12.5c0,0,11.3,9,19.4,7.3s19.7-16.2,18.5-29.3
							c-1.2-13.1-8.7-13.1-13.3-11c-4.6,2-6.4,4.1-6.4,4.1s6.7-8.1,0-19.4c-6.7-11.3-18.5-12.2-18.5-12.2s-3.5-18.6-13.9-25.5
							C261.6,186.5,224.5,179.3,209.7,211.2z"/>
					</g>
					<g>
						<g>
							<g>
								<defs>
									<path id="SVGID_11_" d="M209.7,211.2c0,0-11.3,32.8-5.2,58.3s28.4,33.9,28.4,33.9s-16.5,5.8-12.7,14.8s18,3.2,22.6,0.3
										c4.6-2.9,10.4-11.6,11.3-17.4c0.9-5.8,0.6-9,0.6-9s18.8-2,31.6-12.5c0,0,11.3,9,19.4,7.3s19.7-16.2,18.5-29.3
										c-1.2-13.1-8.7-13.1-13.3-11c-4.6,2-6.4,4.1-6.4,4.1s6.7-8.1,0-19.4c-6.7-11.3-18.5-12.2-18.5-12.2s-3.5-18.6-13.9-25.5
										C261.6,186.5,224.5,179.3,209.7,211.2z"/>
								</defs>
								<clipPath id="SVGID_12_">
									<use xlink:href="#SVGID_11_"  style="overflow:visible;"/>
								</clipPath>
								<path class="st18" d="M295.8,222.5c-8.2,13.7-24.8,29.4-51,31.7c-23,2-36-2.5-41.9-5.7c0.8-19.6,6.9-37.3,6.9-37.3
									c14.8-31.9,51.8-24.7,62.2-17.7c10.4,7,13.9,25.5,13.9,25.5S290.6,219.4,295.8,222.5z M310.8,246.6c-4.6,2-6.4,4.1-6.4,4.1
									s2-2.5,2.7-6.6c-15.6,7.8-14.4,24.5-16.4,24.5c-2.4,0-3.6-8.4-3.6-8.4s-3,12-20.9,20.4s-38.3,1.8-38.3,1.8s4.2,9.6-6.6,8.4
									c-3.6-0.4-6.4-1.6-8.4-3.1c8.7,11.6,19.9,15.8,19.9,15.8s-16.5,5.8-12.7,14.8s18,3.2,22.6,0.3c4.6-2.9,10.4-11.6,11.3-17.4
									c0.9-5.8,0.6-9,0.6-9s18.8-2,31.6-12.5c0,0,11.3,9,19.4,7.3s19.7-16.2,18.5-29.3C322.9,244.5,315.4,244.5,310.8,246.6z"/>
							</g>
						</g>
					</g>
					<g>
						<g>
							<g>
								<defs>
									<path id="SVGID_13_" d="M209.7,211.2c0,0-11.3,32.8-5.2,58.3s28.4,33.9,28.4,33.9s-16.5,5.8-12.7,14.8s18,3.2,22.6,0.3
										c4.6-2.9,10.4-11.6,11.3-17.4c0.9-5.8,0.6-9,0.6-9s18.8-2,31.6-12.5c0,0,11.3,9,19.4,7.3s19.7-16.2,18.5-29.3
										c-1.2-13.1-8.7-13.1-13.3-11c-4.6,2-6.4,4.1-6.4,4.1s6.7-8.1,0-19.4c-6.7-11.3-18.5-12.2-18.5-12.2s-3.5-18.6-13.9-25.5
										C261.6,186.5,224.5,179.3,209.7,211.2z"/>
								</defs>
								<clipPath id="SVGID_14_">
									<use xlink:href="#SVGID_13_"  style="overflow:visible;"/>
								</clipPath>
								<path class="st19" d="M295.8,222.5c-8.2,13.7-24.8,29.4-51,31.7c-23,2-36-2.5-41.9-5.7c0.8-19.6,6.9-37.3,6.9-37.3
									c14.8-31.9,51.8-24.7,62.2-17.7c10.4,7,13.9,25.5,13.9,25.5S290.6,219.4,295.8,222.5z M310.8,246.6c-4.6,2-6.4,4.1-6.4,4.1
									s2-2.5,2.7-6.6c-15.6,7.8-14.4,24.5-16.4,24.5c-2.4,0-3.6-8.4-3.6-8.4s-3,12-20.9,20.4s-38.3,1.8-38.3,1.8s4.2,9.6-6.6,8.4
									c-3.6-0.4-6.4-1.6-8.4-3.1c8.7,11.6,19.9,15.8,19.9,15.8s-16.5,5.8-12.7,14.8s18,3.2,22.6,0.3c4.6-2.9,10.4-11.6,11.3-17.4
									c0.9-5.8,0.6-9,0.6-9s18.8-2,31.6-12.5c0,0,11.3,9,19.4,7.3s19.7-16.2,18.5-29.3C322.9,244.5,315.4,244.5,310.8,246.6z"/>
							</g>
						</g>
					</g>
					<g>
						<g>
							<g>
								<defs>
									<path id="SVGID_15_" d="M209.7,211.2c0,0-11.3,32.8-5.2,58.3s28.4,33.9,28.4,33.9s-16.5,5.8-12.7,14.8s18,3.2,22.6,0.3
										c4.6-2.9,10.4-11.6,11.3-17.4c0.9-5.8,0.6-9,0.6-9s18.8-2,31.6-12.5c0,0,11.3,9,19.4,7.3s19.7-16.2,18.5-29.3
										c-1.2-13.1-8.7-13.1-13.3-11c-4.6,2-6.4,4.1-6.4,4.1s6.7-8.1,0-19.4c-6.7-11.3-18.5-12.2-18.5-12.2s-3.5-18.6-13.9-25.5
										C261.6,186.5,224.5,179.3,209.7,211.2z"/>
								</defs>
								<clipPath id="SVGID_16_">
									<use xlink:href="#SVGID_15_"  style="overflow:visible;"/>
								</clipPath>
								<path class="st20" d="M254.6,292.1c0,0-19.3,1.6-32.8-15"/>
							</g>
						</g>
					</g>
					<g>
						<path id="XMLID_3_" class="st9" d="M209.7,211.2c0,0-11.3,32.8-5.2,58.3s28.4,33.9,28.4,33.9s-16.5,5.8-12.7,14.8
							s18,3.2,22.6,0.3c4.6-2.9,10.4-11.6,11.3-17.4c0.9-5.8,0.6-9,0.6-9s18.8-2,31.6-12.5c0,0,11.3,9,19.4,7.3s19.7-16.2,18.5-29.3
							c-1.2-13.1-8.7-13.1-13.3-11c-4.6,2-6.4,4.1-6.4,4.1s6.7-8.1,0-19.4c-6.7-11.3-18.5-12.2-18.5-12.2s-3.5-18.6-13.9-25.5
							C261.6,186.5,224.5,179.3,209.7,211.2z"/>
					</g>
				</g>
				<path class="st9" d="M304.4,250.6c0,0-6.1,4.1-9,16.5"/>
				<g>
					<g>
						<path class="st21" d="M315.6,256c-0.7,2.1-2.7,3.4-4.3,2.8c-1.7-0.6-2.5-2.7-1.7-4.9c0.7-2.1,2.7-3.4,4.3-2.8
							C315.5,251.7,316.3,253.8,315.6,256z"/>
						<path class="st21" d="M321.6,259.7c-0.7,2.1-2.7,3.4-4.3,2.8c-1.7-0.6-2.5-2.7-1.7-4.9c0.7-2.1,2.7-3.4,4.3-2.8
							S322.3,257.6,321.6,259.7z"/>
						<path class="st21" d="M322.8,265.4c-0.5,1.5-1.9,2.5-3.1,2.1s-1.8-2-1.3-3.5s1.9-2.5,3.1-2.1
							C322.8,262.3,323.4,263.9,322.8,265.4z"/>
					</g>
					<path class="st21" d="M315.2,273.2c-2.1,3.8-6.3,5.5-9.4,3.8s-3.9-6.2-1.8-9.9c2.1-3.8,6.3-5.5,9.4-3.8
						C316.5,264.9,317.3,269.4,315.2,273.2z"/>
				</g>
				<g>
					<path class="st9" d="M232.9,303.4c0,0,5.2,2.9,12.4,0.9"/>
					<path class="st9" d="M220.2,318.2c0,0,1.2-4.9,8.4-8.4"/>
					<path class="st9" d="M227.4,322.6c0,0,2.9-7,7.8-10.2"/>
				</g>
			</g>
		</g>
		<g>
			<path class="st3" d="M113.2,242.3c-2.5-2-3.7-4.8-3.7-8.3v-27.6H38.3c-3.8,0-6.9-1.3-9.3-3.9c-2.4-2.6-3.6-5.6-3.6-9.1
				c0-2.8,0.8-5.3,2.4-7.8L96,78.4c5.1-7.9,11.9-11.9,20.3-11.9c5,0,9.2,1.5,12.5,4.4s5,7.3,5,13v104.3h18.1c2.9,0,5.2,0.9,6.7,2.7
				c1.6,1.8,2.4,3.9,2.4,6.4s-0.8,4.6-2.4,6.4c-1.6,1.8-3.8,2.7-6.7,2.7h-18.2V234c0,3.5-1.2,6.3-3.6,8.3c-2.4,2-5.2,3-8.4,3
				S115.7,244.3,113.2,242.3z M109.5,188.2v-96l-59.7,96H109.5z"/>
			<path class="st3" d="M212,242.9c-7.4-3.4-13.4-7.9-18-13.5s-8.4-12.5-11.4-20.6s-5-16.4-6.2-24.9s-1.7-17.8-1.7-27.9
				c0-61.4,20.9-92.2,62.8-92.2c41.8,0,62.7,30.7,62.7,92.2c0,10-0.6,19.3-1.7,27.8s-3.2,16.8-6.1,24.9c-3,8.1-6.7,14.9-11.4,20.6
				c-4.6,5.6-10.6,10.2-18,13.6c-7.4,3.4-15.9,5.1-25.5,5.1C227.9,248,219.4,246.3,212,242.9z M249.9,225.3c3.7-1.6,6.8-3.8,9.4-6.4
				c2.5-2.6,4.7-5.9,6.6-9.8c1.9-3.9,3.3-7.9,4.4-11.9s1.9-8.5,2.6-13.6c0.6-5,1-9.7,1.2-13.9s0.3-8.8,0.3-13.7
				c0-5.2-0.1-9.9-0.3-14.3c-0.2-4.4-0.6-9.1-1.3-14.1c-0.7-5-1.5-9.6-2.6-13.6s-2.6-7.9-4.4-11.8c-1.9-3.8-4.1-7-6.6-9.6
				s-5.6-4.6-9.3-6.2c-3.7-1.5-7.8-2.3-12.4-2.3c-4.6,0-8.7,0.8-12.4,2.3s-6.7,3.6-9.2,6.1s-4.7,5.7-6.6,9.6
				c-1.9,3.8-3.4,7.8-4.4,11.8s-1.9,8.5-2.6,13.6c-0.7,5.1-1.1,9.8-1.3,14.2s-0.3,9.2-0.3,14.3c0,4.9,0.1,9.5,0.3,13.8
				s0.6,8.9,1.2,13.9c0.6,5,1.5,9.6,2.6,13.6s2.6,8,4.4,11.9c1.9,3.9,4.1,7.2,6.6,9.8s5.6,4.7,9.3,6.3s7.8,2.4,12.4,2.4
				C242,227.7,246.2,226.9,249.9,225.3z"/>
			<path class="st3" d="M408,242.3c-2.5-2-3.7-4.8-3.7-8.3v-27.6h-71.2c-3.8,0-6.9-1.3-9.3-3.9c-2.4-2.6-3.6-5.6-3.6-9.1
				c0-2.8,0.8-5.3,2.4-7.8l68.2-107.3c5.1-7.9,11.9-11.9,20.3-11.9c5,0,9.2,1.5,12.5,4.4s5,7.3,5,13v104.3h18.1
				c2.9,0,5.2,0.9,6.7,2.7c1.6,1.8,2.4,3.9,2.4,6.4s-0.8,4.6-2.4,6.4c-1.6,1.8-3.8,2.7-6.7,2.7h-18.2v27.6c0,3.5-1.2,6.3-3.6,8.3
				s-5.2,3-8.4,3C413.3,245.3,410.5,244.3,408,242.3z M404.2,188.2v-96l-59.7,96H404.2z"/>
		</g>
		<g>
			<g>
				<g>
					<g>
						<path id="XMLID_7_" class="st5" d="M186.3,194.7c0,0-12.2,17.1-13.9,34.5s0.3,29,5.5,33.4s10.4,2.6,13.3-1.5
							c2.9-4.1-1.7-18.3-1.7-18.3s4.9-13.6,12.4-23.2c7.5-9.6,9-11,9-11S197.9,193.8,186.3,194.7z"/>
					</g>
					<g>
						<g>
							<g>
								<defs>
									<path id="SVGID_17_" d="M186.3,194.7c0,0-12.2,17.1-13.9,34.5s0.3,29,5.5,33.4s10.4,2.6,13.3-1.5
										c2.9-4.1-1.7-18.3-1.7-18.3s4.9-13.6,12.4-23.2c7.5-9.6,9-11,9-11S197.9,193.8,186.3,194.7z"/>
								</defs>
								<clipPath id="SVGID_18_">
									<use xlink:href="#SVGID_17_"  style="overflow:visible;"/>
								</clipPath>
								<path class="st22" d="M186.3,194.7c0,0-3.5,5-7.1,12.3c5.8,2.3,14.8,7.1,20.6,15.6c0.7-1,1.4-2,2.2-3c7.5-9.6,9-11,9-11
									S197.9,193.8,186.3,194.7z"/>
							</g>
						</g>
					</g>
					<g>
						<g>
							<g>
								<defs>
									<path id="SVGID_19_" d="M186.3,194.7c0,0-12.2,17.1-13.9,34.5s0.3,29,5.5,33.4s10.4,2.6,13.3-1.5
										c2.9-4.1-1.7-18.3-1.7-18.3s4.9-13.6,12.4-23.2c7.5-9.6,9-11,9-11S197.9,193.8,186.3,194.7z"/>
								</defs>
								<clipPath id="SVGID_20_">
									<use xlink:href="#SVGID_19_"  style="overflow:visible;"/>
								</clipPath>
								<path class="st23" d="M186.3,194.7c0,0-3.5,5-7.1,12.3c5.8,2.3,14.8,7.1,20.6,15.6c0.7-1,1.4-2,2.2-3c7.5-9.6,9-11,9-11
									S197.9,193.8,186.3,194.7z"/>
							</g>
						</g>
					</g>
					<g>
						<path id="XMLID_8_" class="st9" d="M186.3,194.7c0,0-12.2,17.1-13.9,34.5s0.3,29,5.5,33.4s10.4,2.6,13.3-1.5
							c2.9-4.1-1.7-18.3-1.7-18.3s4.9-13.6,12.4-23.2c7.5-9.6,9-11,9-11S197.9,193.8,186.3,194.7z"/>
					</g>
				</g>
				<path class="st9" d="M177.9,262.5c0,0-2-4.6-2-11.9"/>
				<path class="st9" d="M185.7,264.3c0,0-2.9-4.9-3.2-13.3"/>
				<g>
					<path class="st17" d="M190,225.7c0-3.1-5.8-9-13.9-11.6c-1,2.8-2,5.7-2.7,8.7c2.2,0.4,6.1,1.3,9.1,2.9
						C186.9,228,190,229.2,190,225.7z"/>
					<path class="st17" d="M185.6,195.7c-1,1.5-3,4.7-5.1,8.8c2.1,0.6,4.5,1.5,7,2.9c9,5.2,10.7,5.8,7.8-1.7
						C193.5,201,189.3,197.8,185.6,195.7z"/>
				</g>
			</g>
			<g>
				<g>
					<g>
						<path id="XMLID_9_" class="st5" d="M281.5,186.2c0,0,13.8,15.8,17.2,33c3.4,17.1,2.6,28.9-2.2,33.7
							c-4.8,4.8-10.1,3.6-13.4-0.1c-3.3-3.8-0.1-18.4-0.1-18.4s-6.2-13.1-14.7-21.9c-8.4-8.8-10-10.1-10-10.1
							S269.9,186.5,281.5,186.2z"/>
					</g>
					<g>
						<g>
							<g>
								<defs>
									<path id="SVGID_21_" d="M281.5,186.2c0,0,13.8,15.8,17.2,33c3.4,17.1,2.6,28.9-2.2,33.7c-4.8,4.8-10.1,3.6-13.4-0.1
										c-3.3-3.8-0.1-18.4-0.1-18.4s-6.2-13.1-14.7-21.9c-8.4-8.8-10-10.1-10-10.1S269.9,186.5,281.5,186.2z"/>
								</defs>
								<clipPath id="SVGID_22_">
									<use xlink:href="#SVGID_21_"  style="overflow:visible;"/>
								</clipPath>
								<path class="st24" d="M281.5,186.2c-11.6,0.3-23.1,16.3-23.1,16.3s1.6,1.3,10,10.1c1.6,1.6,3.1,3.4,4.5,5.2
									c2.9-4.9,8.8-12.7,18.2-17.8C286.4,191.8,281.5,186.2,281.5,186.2z"/>
							</g>
						</g>
					</g>
					<g>
						<g>
							<g>
								<defs>
									<path id="SVGID_23_" d="M281.5,186.2c0,0,13.8,15.8,17.2,33c3.4,17.1,2.6,28.9-2.2,33.7c-4.8,4.8-10.1,3.6-13.4-0.1
										c-3.3-3.8-0.1-18.4-0.1-18.4s-6.2-13.1-14.7-21.9c-8.4-8.8-10-10.1-10-10.1S269.9,186.5,281.5,186.2z"/>
								</defs>
								<clipPath id="SVGID_24_">
									<use xlink:href="#SVGID_23_"  style="overflow:visible;"/>
								</clipPath>
								<path class="st25" d="M281.5,186.2c-11.6,0.3-23.1,16.3-23.1,16.3s1.6,1.3,10,10.1c1.6,1.6,3.1,3.4,4.5,5.2
									c2.9-4.9,8.8-12.7,18.2-17.8C286.4,191.8,281.5,186.2,281.5,186.2z"/>
							</g>
						</g>
					</g>
					<g>
						<path id="XMLID_10_" class="st9" d="M281.5,186.2c0,0,13.8,15.8,17.2,33c3.4,17.1,2.6,28.9-2.2,33.7
							c-4.8,4.8-10.1,3.6-13.4-0.1c-3.3-3.8-0.1-18.4-0.1-18.4s-6.2-13.1-14.7-21.9c-8.4-8.8-10-10.1-10-10.1
							S269.9,186.5,281.5,186.2z"/>
					</g>
				</g>
				<path class="st9" d="M296.5,252.9c0,0,1.6-4.8,0.9-12"/>
				<path class="st9" d="M288.9,255.4c0,0,2.4-5.2,1.9-13.6"/>
				<g>
					<path class="st17" d="M280.8,217.5c-0.3-3,4.9-9.6,12.7-12.9c1.3,2.7,2.5,5.5,3.5,8.4c-2.1,0.6-5.9,1.9-8.7,3.8
						C284.2,219.5,281.1,220.9,280.8,217.5z"/>
					<path class="st17" d="M282.3,187.2c1.2,1.4,3.4,4.4,6,8.3c-2.1,0.8-4.3,1.9-6.7,3.6c-8.4,6.1-10.1,6.8-8-1
						C275,193.2,278.8,189.6,282.3,187.2z"/>
				</g>
			</g>
			<g>
				<g>
					<g>
						<g>
							<path id="XMLID_11_" class="st5" d="M185.1,179.9c0,0-3.6,12.1-2.2,17c1.3,4.9,7.6,0.4,13.9,5.8c6.3,5.4,12.1,15.1,35.8,16.9
								c23.7,1.8,38.1-11,43-18.2s4.5-15.7,13-16.2c8.5-0.4,1.3-17-1.3-19.7c0,0,16.6-24.7,16.6-31s-15.7-4.9-34.9,0.9
								c0,0-14.3-7.6-40.3-3.1c-26,4.5-33.6,12.1-33.6,12.1s-32.2,4-34.5,8.1C158.3,156.5,165,173.6,185.1,179.9z"/>
						</g>
						<g>
							<g>
								<g>
									<defs>
										<path id="SVGID_25_" d="M185.1,179.9c0,0-3.6,12.1-2.2,17c1.3,4.9,7.6,0.4,13.9,5.8c6.3,5.4,12.1,15.1,35.8,16.9
											c23.7,1.8,38.1-11,43-18.2s4.5-15.7,13-16.2c8.5-0.4,1.3-17-1.3-19.7c0,0,16.6-24.7,16.6-31s-15.7-4.9-34.9,0.9
											c0,0-14.3-7.6-40.3-3.1c-26,4.5-33.6,12.1-33.6,12.1s-32.2,4-34.5,8.1C158.3,156.5,165,173.6,185.1,179.9z"/>
									</defs>
									<clipPath id="SVGID_26_">
										<use xlink:href="#SVGID_25_"  style="overflow:visible;"/>
									</clipPath>
									<path class="st26" d="M288.6,185.2c8.5-0.4,1.3-17-1.3-19.7c0,0,3.2-4.7,6.7-10.5c-9.6-5-19.1-7.8-21.6-5
										c-5.4,6.1-2.5,17.7,0,29.1c2.5,11.3-7.4,16.3-14.3,26.1c-6.9,9.9-16.7-1-16.7-1c-3.4,14.3-18.2,4.9-18.2,4.9
										c-11.3-3.4-30.5-14.8-26.6-22.7s4.9-15.3-2-21.7S160.2,153,160.2,153l0,0c-1.4,4.9,5.5,20.8,24.9,26.8c0,0-3.6,12.1-2.2,17
										c1.3,4.9,7.6,0.4,13.9,5.8c6.3,5.4,12.1,15.1,35.8,16.9c23.7,1.8,38.1-11,43-18.2C280.5,194.2,280.1,185.7,288.6,185.2z"/>
								</g>
							</g>
						</g>
						<g>
							<g>
								<g>
									<defs>
										<path id="SVGID_27_" d="M185.1,179.9c0,0-3.6,12.1-2.2,17c1.3,4.9,7.6,0.4,13.9,5.8c6.3,5.4,12.1,15.1,35.8,16.9
											c23.7,1.8,38.1-11,43-18.2s4.5-15.7,13-16.2c8.5-0.4,1.3-17-1.3-19.7c0,0,16.6-24.7,16.6-31s-15.7-4.9-34.9,0.9
											c0,0-14.3-7.6-40.3-3.1c-26,4.5-33.6,12.1-33.6,12.1s-32.2,4-34.5,8.1C158.3,156.5,165,173.6,185.1,179.9z"/>
									</defs>
									<clipPath id="SVGID_28_">
										<use xlink:href="#SVGID_27_"  style="overflow:visible;"/>
									</clipPath>
									<path class="st27" d="M288.6,185.2c8.5-0.4,1.3-17-1.3-19.7c0,0,3.2-4.7,6.7-10.5c-9.6-5-19.1-7.8-21.6-5
										c-5.4,6.1-2.5,17.7,0,29.1c2.5,11.3-7.4,16.3-14.3,26.1c-6.9,9.9-16.7-1-16.7-1c-3.4,14.3-18.2,4.9-18.2,4.9
										c-11.3-3.4-30.5-14.8-26.6-22.7s4.9-15.3-2-21.7S160.2,153,160.2,153l0,0c-1.4,4.9,5.5,20.8,24.9,26.8c0,0-3.6,12.1-2.2,17
										c1.3,4.9,7.6,0.4,13.9,5.8c6.3,5.4,12.1,15.1,35.8,16.9c23.7,1.8,38.1-11,43-18.2C280.5,194.2,280.1,185.7,288.6,185.2z"/>
								</g>
							</g>
						</g>
						<g>
							<g>
								<g>
									<defs>
										<path id="SVGID_29_" d="M185.1,179.9c0,0-3.6,12.1-2.2,17c1.3,4.9,7.6,0.4,13.9,5.8c6.3,5.4,12.1,15.1,35.8,16.9
											c23.7,1.8,38.1-11,43-18.2s4.5-15.7,13-16.2c8.5-0.4,1.3-17-1.3-19.7c0,0,16.6-24.7,16.6-31s-15.7-4.9-34.9,0.9
											c0,0-14.3-7.6-40.3-3.1c-26,4.5-33.6,12.1-33.6,12.1s-32.2,4-34.5,8.1C158.3,156.5,165,173.6,185.1,179.9z"/>
									</defs>
									<clipPath id="SVGID_30_">
										<use xlink:href="#SVGID_29_"  style="overflow:visible;"/>
									</clipPath>
									<path class="st28" d="M253.6,188c0.3,2.8-6,5.9-14.1,6.8c-8.1,0.9-14.9-0.6-15.3-3.4c-0.3-2.8,6-5.9,14.1-6.8
										C246.4,183.6,253.3,185.1,253.6,188z"/>
								</g>
							</g>
						</g>
						<g>
							<g>
								<g>
									<defs>
										<path id="SVGID_31_" d="M185.1,179.9c0,0-3.6,12.1-2.2,17c1.3,4.9,7.6,0.4,13.9,5.8c6.3,5.4,12.1,15.1,35.8,16.9
											c23.7,1.8,38.1-11,43-18.2s4.5-15.7,13-16.2c8.5-0.4,1.3-17-1.3-19.7c0,0,16.6-24.7,16.6-31s-15.7-4.9-34.9,0.9
											c0,0-14.3-7.6-40.3-3.1c-26,4.5-33.6,12.1-33.6,12.1s-32.2,4-34.5,8.1C158.3,156.5,165,173.6,185.1,179.9z"/>
									</defs>
									<clipPath id="SVGID_32_">
										<use xlink:href="#SVGID_31_"  style="overflow:visible;"/>
									</clipPath>
									<path class="st29" d="M253.6,188c0.3,2.8-6,5.9-14.1,6.8c-8.1,0.9-14.9-0.6-15.3-3.4c-0.3-2.8,6-5.9,14.1-6.8
										C246.4,183.6,253.3,185.1,253.6,188z"/>
								</g>
							</g>
						</g>
						<g>
							<path id="XMLID_12_" class="st2" d="M185.1,179.9c0,0-3.6,12.1-2.2,17c1.3,4.9,7.6,0.4,13.9,5.8c6.3,5.4,12.1,15.1,35.8,16.9
								c23.7,1.8,38.1-11,43-18.2s4.5-15.7,13-16.2c8.5-0.4,1.3-17-1.3-19.7c0,0,16.6-24.7,16.6-31s-15.7-4.9-34.9,0.9
								c0,0-14.3-7.6-40.3-3.1c-26,4.5-33.6,12.1-33.6,12.1s-32.2,4-34.5,8.1C158.3,156.5,165,173.6,185.1,179.9z"/>
						</g>
					</g>
					<g>
						<path class="st30" d="M277.8,143.9c-11.6,7.8-7.5,15.7-2.3,20c3.2,2.7,8.3,2.3,11.8,1.6l0,0c0,0,16.6-24.7,16.6-31
							C303.8,134.5,289.4,136.1,277.8,143.9z"/>
						<path class="st30" d="M160.3,153.1c-1.4,4.9,5.5,20.8,24.9,26.8c0,0,14.7-1.4,9.8-13.3C190.4,155.4,167.1,152.7,160.3,153.1z"
							/>
					</g>
				</g>
				<g>
					<g>
						<path class="st30" d="M228.6,132.3c-1.5,0.3-3,0.5-4.4,0.8c2.3,11.8,6.2,31.4,9.6,31.4c3.5,0,6-21.5,7.2-33.5
							C237.2,131.1,233,131.5,228.6,132.3z"/>
						<path class="st30" d="M215.2,161c3.6-2.1,3-17.9,2.5-26.4c-4.3,1.1-7.9,2.3-10.8,3.4C208.2,146,211.4,163.2,215.2,161z"/>
						<path class="st30" d="M249.7,153.8c3.6,1.3,5.7-11.8,6.8-21.9c-3.1-0.5-6.9-0.9-11.1-0.9C245.3,139.2,245.7,152.4,249.7,153.8
							z"/>
					</g>
					<path class="st17" d="M244.8,199.2c-2-0.5-6.2-1.1-10.1,1.2c-0.6,0.3-0.7,1.1-0.2,1.6l6.2,5.8c0.5,0.5,1.3,0.3,1.6-0.3l3.2-7
						C245.7,200,245.4,199.3,244.8,199.2z"/>
					<path class="st3" d="M230.1,189.4c0.9,2.2,0.5,4.5-0.8,4.9c-1.3,0.5-3-0.9-3.8-3.2c-0.9-2.2-0.5-4.5,0.8-4.9
						S229.3,187.2,230.1,189.4z"/>
					<path class="st3" d="M247,187.8c-0.4,2.4,0.3,4.5,1.6,4.7c1.3,0.3,2.8-1.5,3.2-3.8c0.4-2.4-0.3-4.5-1.6-4.7
						C248.9,183.7,247.4,185.5,247,187.8z"/>
					<path class="st9" d="M242.3,207.5c0,0-8.3,11.2-15.8-0.1"/>
					<path class="st9" d="M240.7,207.8c0,0,5.5,5.7,11.3,2.5c5.8-3.2,2.3-8.1,2.3-8.1"/>
					<path class="st31" d="M215.5,180.4c0,0,2-7.3,11.6-5.5"/>
					<path class="st31" d="M244.5,173.8c0,0,7.2-4.4,13.9,2.6"/>
					<line class="st32" x1="210" y1="199.9" x2="217" y2="201.6"/>
					<line class="st32" x1="216.1" y1="204.2" x2="210" y2="205.4"/>
					<line class="st32" x1="217.3" y1="207.4" x2="212.9" y2="209.7"/>
					<line class="st32" x1="261.3" y1="196.7" x2="267.4" y2="195.2"/>
					<line class="st32" x1="262.4" y1="199.6" x2="266.5" y2="199.6"/>
					<line class="st32" x1="263.3" y1="202.5" x2="268.8" y2="203.9"/>
				</g>
			</g>
		</g>
	</g>
</g>
<rect x="55" y="266.8" class="st33" width="179" height="67"/>
<g class="st34">
	<path d="M109.9,289.3l3.3-8.3h2.2l-5,11.8c-0.3,0.8-0.7,1.3-0.9,1.6s-0.6,0.6-1,0.7s-0.9,0.2-1.5,0.2c-0.5,0-0.8,0-1-0.1l0.1-1.5
		l0.9,0c0.7,0,1.2-0.3,1.5-1l0.2-0.5l0.4-0.9l-4.8-10.5h2.1L109.9,289.3z"/>
	<path d="M125,295.2h-1.8v-9.1h-4.9v9.1h-1.8v-10.6h8.5V295.2z"/>
	<path d="M132.1,294c0.6,0,1.2-0.2,1.7-0.6s0.7-0.9,0.8-1.5h1.7c0,0.6-0.2,1.2-0.6,1.7s-0.9,1-1.5,1.3s-1.3,0.5-2,0.5
		c-1.4,0-2.6-0.5-3.4-1.4s-1.3-2.3-1.3-3.9v-0.3c0-1,0.2-1.9,0.6-2.7s0.9-1.4,1.6-1.9s1.5-0.7,2.5-0.7c1.2,0,2.2,0.4,3,1.1
		s1.2,1.6,1.3,2.8h-1.7c-0.1-0.7-0.3-1.2-0.8-1.7s-1-0.7-1.7-0.7c-0.9,0-1.6,0.3-2.1,1s-0.8,1.6-0.8,2.9v0.3c0,1.2,0.3,2.2,0.8,2.8
		S131.2,294,132.1,294z"/>
	<path d="M143.3,294.3c0-0.3,0.1-0.6,0.3-0.8s0.5-0.3,0.8-0.3s0.7,0.1,0.8,0.3s0.3,0.5,0.3,0.8c0,0.3-0.1,0.5-0.3,0.8
		s-0.5,0.3-0.8,0.3s-0.6-0.1-0.8-0.3S143.3,294.6,143.3,294.3z"/>
	<path d="M148.6,294.3c0-0.3,0.1-0.6,0.3-0.8s0.5-0.3,0.8-0.3s0.7,0.1,0.8,0.3s0.3,0.5,0.3,0.8c0,0.3-0.1,0.5-0.3,0.8
		s-0.5,0.3-0.8,0.3s-0.6-0.1-0.8-0.3S148.6,294.6,148.6,294.3z"/>
	<path d="M153.9,294.3c0-0.3,0.1-0.6,0.3-0.8s0.5-0.3,0.8-0.3s0.7,0.1,0.8,0.3s0.3,0.5,0.3,0.8c0,0.3-0.1,0.5-0.3,0.8
		s-0.5,0.3-0.8,0.3s-0.6-0.1-0.8-0.3S153.9,294.6,153.9,294.3z"/>
</g>
<g class="st34">
	<path d="M75.4,318c0.6,0,1.2-0.2,1.7-0.6s0.7-0.9,0.8-1.5h1.7c0,0.6-0.2,1.2-0.6,1.7s-0.9,1-1.5,1.3s-1.3,0.5-2,0.5
		c-1.4,0-2.6-0.5-3.4-1.4s-1.3-2.3-1.3-3.9v-0.3c0-1,0.2-1.9,0.6-2.7s0.9-1.4,1.6-1.9s1.5-0.7,2.5-0.7c1.2,0,2.2,0.4,3,1.1
		s1.2,1.6,1.3,2.8h-1.7c-0.1-0.7-0.3-1.2-0.8-1.7s-1-0.7-1.7-0.7c-0.9,0-1.6,0.3-2.1,1s-0.8,1.6-0.8,2.9v0.3c0,1.2,0.3,2.2,0.8,2.8
		S74.4,318,75.4,318z"/>
	<path d="M89.4,310.1h-3.5v9.1h-1.8v-9.1h-3.5v-1.5h8.8V310.1z"/>
	<path d="M100.1,314.1c0,1.6-0.4,2.9-1.1,3.9s-1.7,1.5-3,1.5c-1.3,0-2.3-0.4-3-1.2v5.1h-1.8v-14.6h1.7l0.1,1.2
		c0.7-0.9,1.8-1.4,3.1-1.4c1.3,0,2.3,0.5,3,1.4s1.1,2.3,1.1,4V314.1z M98.3,313.9c0-1.2-0.3-2.1-0.8-2.8s-1.2-1-2.1-1
		c-1.1,0-1.9,0.5-2.5,1.5v5c0.5,1,1.4,1.4,2.5,1.4c0.9,0,1.6-0.3,2.1-1S98.3,315.2,98.3,313.9z"/>
	<path d="M108.9,319.2c-0.1-0.2-0.2-0.6-0.3-1.1c-0.8,0.9-1.8,1.3-3,1.3c-1,0-1.9-0.3-2.6-0.9s-1-1.3-1-2.2c0-1.1,0.4-2,1.3-2.6
		s2-0.9,3.5-0.9h1.8V312c0-0.6-0.2-1.1-0.6-1.5s-0.9-0.6-1.7-0.6c-0.6,0-1.2,0.2-1.6,0.5s-0.7,0.7-0.7,1.2h-1.8c0-0.5,0.2-1,0.6-1.5
		s0.9-0.9,1.5-1.2s1.3-0.4,2.1-0.4c1.2,0,2.2,0.3,2.9,0.9s1,1.4,1.1,2.5v4.9c0,1,0.1,1.7,0.4,2.3v0.2H108.9z M105.9,317.9
		c0.6,0,1.1-0.1,1.6-0.4s0.9-0.7,1.1-1.1v-2.2h-1.4c-2.2,0-3.3,0.6-3.3,1.9c0,0.6,0.2,1,0.6,1.3S105.4,317.9,105.9,317.9z"/>
	<path d="M121.9,319.2h-1.8v-4.5h-4.9v4.5h-1.8v-10.6h1.8v4.6h4.9v-4.6h1.8V319.2z"/>
	<path d="M131.7,308.7h1.8v10.6h-1.8v-7.7l-4.9,7.7H125v-10.6h1.8v7.7L131.7,308.7z"/>
	<path d="M136.5,308.7h1.8v9.1h4.9v-9.1h1.8v9.1h1.3l-0.2,4.6h-1.6v-3.1h-7.9V308.7z"/>
	<path d="M154.7,319.2c-0.1-0.2-0.2-0.6-0.3-1.1c-0.8,0.9-1.8,1.3-3,1.3c-1,0-1.9-0.3-2.6-0.9s-1-1.3-1-2.2c0-1.1,0.4-2,1.3-2.6
		s2-0.9,3.5-0.9h1.8V312c0-0.6-0.2-1.1-0.6-1.5s-0.9-0.6-1.7-0.6c-0.6,0-1.2,0.2-1.6,0.5s-0.7,0.7-0.7,1.2h-1.8c0-0.5,0.2-1,0.6-1.5
		s0.9-0.9,1.5-1.2s1.3-0.4,2.1-0.4c1.2,0,2.2,0.3,2.9,0.9s1,1.4,1.1,2.5v4.9c0,1,0.1,1.7,0.4,2.3v0.2H154.7z M151.7,317.9
		c0.6,0,1.1-0.1,1.6-0.4s0.9-0.7,1.1-1.1v-2.2H153c-2.2,0-3.3,0.6-3.3,1.9c0,0.6,0.2,1,0.6,1.3S151.2,317.9,151.7,317.9z"/>
</g>
<g class="st34">
	<path d="M61.4,343.2h-1.8v-4.5h-4.9v4.5h-1.8v-10.6h1.8v4.6h4.9v-4.6h1.8V343.2z"/>
	<path d="M68.7,343.4c-1.4,0-2.6-0.5-3.5-1.4s-1.3-2.2-1.3-3.8v-0.3c0-1,0.2-2,0.6-2.8s1-1.5,1.7-1.9s1.5-0.7,2.3-0.7
		c1.4,0,2.4,0.5,3.2,1.4s1.1,2.2,1.1,3.9v0.8h-7.2c0,1,0.3,1.9,0.9,2.5s1.3,1,2.2,1c0.6,0,1.2-0.1,1.6-0.4s0.8-0.6,1.2-1l1.1,0.9
		C71.8,342.8,70.5,343.4,68.7,343.4z M68.5,334c-0.7,0-1.3,0.3-1.8,0.8s-0.8,1.3-0.9,2.2H71v-0.1c-0.1-0.9-0.3-1.6-0.7-2.1
		S69.2,334,68.5,334z"/>
	<path d="M88.5,343.2h-1.8v-4.5h-4.9v4.5H80v-10.6h1.8v4.6h4.9v-4.6h1.8V343.2z"/>
	<path d="M97.9,343.2c-0.1-0.2-0.2-0.6-0.3-1.1c-0.8,0.9-1.8,1.3-3,1.3c-1,0-1.9-0.3-2.6-0.9s-1-1.3-1-2.2c0-1.1,0.4-2,1.3-2.6
		s2-0.9,3.5-0.9h1.8V336c0-0.6-0.2-1.1-0.6-1.5s-0.9-0.6-1.7-0.6c-0.6,0-1.2,0.2-1.6,0.5s-0.7,0.7-0.7,1.2h-1.8c0-0.5,0.2-1,0.6-1.5
		s0.9-0.9,1.5-1.2s1.3-0.4,2.1-0.4c1.2,0,2.2,0.3,2.9,0.9s1,1.4,1.1,2.5v4.9c0,1,0.1,1.7,0.4,2.3v0.2H97.9z M94.9,341.9
		c0.6,0,1.1-0.1,1.6-0.4s0.9-0.7,1.1-1.1v-2.2h-1.4c-2.2,0-3.3,0.6-3.3,1.9c0,0.6,0.2,1,0.6,1.3S94.3,341.9,94.9,341.9z"/>
	<path d="M109.1,332.7h1.8v10.6h-1.8v-7.7l-4.9,7.7h-1.8v-10.6h1.8v7.7L109.1,332.7z M109.6,328.8c0,0.8-0.3,1.4-0.8,1.9
		s-1.2,0.7-2.1,0.7s-1.6-0.2-2.1-0.7s-0.8-1.1-0.8-1.9h1.5c0,0.5,0.1,0.8,0.4,1.1s0.6,0.4,1.1,0.4c0.5,0,0.8-0.1,1.1-0.4
		s0.4-0.6,0.4-1.1H109.6z"/>
	<path d="M113.7,341.8l0.6-0.8c0.7-0.9,1.1-2.3,1.2-4.1l0.2-4.2h6.8v9.1h1.4v4.6h-1.8v-3.1h-7.4v3.1h-1.8l0-4.6H113.7z M115.9,341.8
		h4.9v-7.4h-3.3l-0.1,2.5C117.3,339,116.8,340.6,115.9,341.8z"/>
	<path d="M130.3,343.4c-1.4,0-2.6-0.5-3.5-1.4s-1.3-2.2-1.3-3.8v-0.3c0-1,0.2-2,0.6-2.8s1-1.5,1.7-1.9s1.5-0.7,2.3-0.7
		c1.4,0,2.4,0.5,3.2,1.4s1.1,2.2,1.1,3.9v0.8h-7.2c0,1,0.3,1.9,0.9,2.5s1.3,1,2.2,1c0.6,0,1.2-0.1,1.6-0.4s0.8-0.6,1.2-1l1.1,0.9
		C133.4,342.8,132.1,343.4,130.3,343.4z M130.1,334c-0.7,0-1.3,0.3-1.8,0.8s-0.8,1.3-0.9,2.2h5.3v-0.1c-0.1-0.9-0.3-1.6-0.7-2.1
		S130.8,334,130.1,334z"/>
	<path d="M145.1,343.2h-1.8v-4.5h-4.9v4.5h-1.8v-10.6h1.8v4.6h4.9v-4.6h1.8V343.2z"/>
	<path d="M154.5,343.2c-0.1-0.2-0.2-0.6-0.3-1.1c-0.8,0.9-1.8,1.3-3,1.3c-1,0-1.9-0.3-2.6-0.9s-1-1.3-1-2.2c0-1.1,0.4-2,1.3-2.6
		s2-0.9,3.5-0.9h1.8V336c0-0.6-0.2-1.1-0.6-1.5s-0.9-0.6-1.7-0.6c-0.6,0-1.2,0.2-1.6,0.5s-0.7,0.7-0.7,1.2h-1.8c0-0.5,0.2-1,0.6-1.5
		s0.9-0.9,1.5-1.2s1.3-0.4,2.1-0.4c1.2,0,2.2,0.3,2.9,0.9s1,1.4,1.1,2.5v4.9c0,1,0.1,1.7,0.4,2.3v0.2H154.5z M151.5,341.9
		c0.6,0,1.1-0.1,1.6-0.4s0.9-0.7,1.1-1.1v-2.2h-1.4c-2.2,0-3.3,0.6-3.3,1.9c0,0.6,0.2,1,0.6,1.3S151,341.9,151.5,341.9z"/>
	<path d="M159.1,342.3c0-0.3,0.1-0.5,0.3-0.7s0.4-0.3,0.8-0.3s0.6,0.1,0.8,0.3s0.3,0.4,0.3,0.7s-0.1,0.5-0.3,0.7
		c-0.2,0.2-0.4,0.3-0.8,0.3s-0.6-0.1-0.8-0.3C159.2,342.9,159.1,342.6,159.1,342.3z M160.9,339.2h-1.6l-0.1-10.2h1.9L160.9,339.2z"
		/>
</g>
</svg>
