
<svg 	 viewBox="0 0 24.4819374 19.347229" >

<path  d="M22.73773,16.5128155V1.1663737C22.73773,0.7983118,22.439373,0.5,22.0713577,0.5H9.3954439
	c-1.8931375,0-3.7611489,0.6368426-5.2601151,1.7932465c-2.098449,1.6189187-3.3512278,4.167695-3.3512278,6.8180027v2.9026356
	c0,0.3680611,0.2983588,0.6663733,0.6663737,0.6663733h7.7098446"/>
<path  d="M5.4621987,16.5128155H0.5068515"/>
<path  d="M23.9750843,16.5128155H10.1887817"/>
<path  d="M19.6393852,16.5128155V5.6031399c0-0.402657-0.2937622-0.7290077-0.6561069-0.7290077h-5.0813284
	c-0.3623915,0-0.6561079,0.3264027-0.6561079,0.7290077v10.909626"/>
<rect x="5.1954565" y="5.460835" class="st3" width="5.6717" height="3.907171"/>
<circle  cx="7.82549" cy="16.5128155" r="2.3632913"/>
</svg>
