<svg  viewBox="0 0 174 54">
	<defs>
		<path  id='mask-example' fill='#fff' stroke='#000' stroke-width='1' d="M35.6327362,30.4343071v1.3047447c-2.2355309,2.5024338-4.2887573,4.565937-6.1583519,6.1931877
			c-1.8695946,1.6245728-3.6952763,2.8757896-5.4783764,3.7523117C22.2129078,42.5610695,20.489687,43,18.8263474,43
			c-1.4371262,0-2.6719894-0.2877121-3.7019291-0.8631401c-1.0326023-0.5754242-1.8110447-1.4158134-2.3366604-2.5184898
			C12.2621422,38.5130157,12,37.2055969,12,35.6934319c0-1.1909981,0.1889553-2.4515839,0.5695276-3.7830906
			c0.3779106-1.3315086,0.9274788-2.6763992,1.6460409-4.0360107c0.7185631-1.3569336,1.5994682-2.759367,2.6440449-4.2046223
			c1.0445786-1.4452553,2.272789-2.9641113,3.6833-4.5565701c1.4637394-1.6459846,2.9075184-3.067152,4.3313389-4.2648411
			c1.4238186-1.1976891,2.7145691-2.138443,3.8722553-2.8209248c1.1576843-0.6824818,2.2315369-1.1909981,3.2242184-1.525548
			C32.9607468,10.1672745,33.7831001,10,34.4351311,10c0.6653328,0,1.2308693,0.1605835,1.6966057,0.4817514
			s0.825016,0.7895384,1.0778427,1.4051094c0.2528305,0.615572,0.3792419,1.3248177,0.3792419,2.127738
			c0,1.5121651-0.5123062,3.1956196-1.5369263,5.0490265c-1.0246162,1.8534069-2.302063,3.6425781-3.8323326,5.3688564
			c-1.5302753,1.7262783-2.9913521,3.1354008-4.3819046,4.2260342s-2.3912182,1.6352806-3.0033264,1.6352806
			c-0.412508,0-0.795742-0.1632614-1.1483707-0.4924583c-0.3526268-0.3265209-0.5282764-0.6985397-0.5282764-1.1133823
			c0-0.7627735,0.4018631-1.6861305,1.2069206-2.7700729c0.8050556-1.0839405,1.6833-2.0768852,2.6347294-2.9815083
			c0.9514313-0.901947,1.5209579-1.3542576,1.7072525-1.3542576c0.0931473,0,0.1397209,0.0401459,0.1397209,0.1204376
			c0,0.1204376-0.0691948,0.327858-0.210247,0.622263c-0.1383896,0.2944031-0.2089157,0.4750614-0.2089157,0.5419712
			c0,0.1070557,0.0399208,0.1605835,0.1197605,0.1605835c0.2262154,0,0.8782444-0.608881,1.956089-1.826643
			c1.0778446-1.2177601,2.0665321-2.5599747,2.9634056-4.0239658c0.8995361-1.4666662,1.3479729-2.6670313,1.3479729-3.6037712
			c0-0.3880777-0.0838356-0.6851578-0.2488365-0.8925791c-0.1676674-0.2074203-0.4165001-0.3118-0.7491684-0.3118
			c-0.9314728,0-2.3459759,0.7600975-4.2408524,2.2789536c-1.8975391,1.518857-3.8403187,3.4525557-5.8283443,5.7997561
			c-1.9906845,2.3498783-3.650032,4.7746964-4.9807053,7.2771301c-1.3306713,2.5024319-1.9960079,4.7037697-1.9960079,6.6040154
			c0,1.0973206,0.1623421,2.0139885,0.4883575,2.75c0.3260155,0.7360077,0.8050556,1.3047447,1.4371262,1.7062035
			c0.6320686,0.4014587,1.3945446,0.6021881,2.2860947,0.6021881c1.9294739,0,4.1184292-0.7560806,6.5668659-2.2682457
			S32.6919479,33.3783455,35.6327362,30.4343071z M48.287426,30.474453v1.3448906
			c-0.8782425,0.8029175-1.5834999,1.3381996-2.1157684,1.6058388s-1.2974052,0.3746948-2.2954102,0.321167
			c-1.7298737,2.0608292-3.2534943,3.0912437-4.570858,3.0912437c-0.7451782,0-1.4238205-0.24757-2.0359268-0.7427025
			c-0.6121101-0.4951324-1.101799-1.1709251-1.4677315-2.0273705c-0.3659363-0.8564491-0.5482368-1.8132629-0.5482368-2.8704395
			c0-0.8564472,0.2821007-1.8065701,0.8489685-2.8503647c0.5642052-1.0437965,1.2960739-2.0166664,2.1956062-2.9212894
			c0.8968735-0.901947,1.8589516-1.6312656,2.8835678-2.1866188s1.9760475-0.8336983,2.85429-0.8336983
			c0.6254158,0,1.1177673,0.0976887,1.477047,0.29039c0.3592834,0.1953773,0.5389214,0.4656925,0.5389214,0.8136253
			c0,0.2676392-0.1530266,0.5754242-0.4590797,0.923357c0.5056534,0.1070557,0.8516273,0.2850361,1.0379219,0.5326042
			c0.1862946,0.2475662,0.2794418,0.6985397,0.2794418,1.3542576c0,0.6423359-0.1490364,1.4519463-0.4497681,2.4288311
			c-0.298069,0.9768867-0.7079163,1.8935528-1.2268791,2.75l0.3592834,0.3613148h0.2994003
			c0.2262154,0,0.4484367-0.0562038,0.6693268-0.1712894c0.2182312-0.1124096,0.4151726-0.2328472,0.5881577-0.3613148
			C47.3226891,31.2010956,47.701931,30.9160576,48.287426,30.474453z M44.1756477,25.1952553
			c-1.1044579,0.6690998-2.0492325,1.2739658-2.8343315,1.817276c-0.7850952,0.5406322-1.4504318,1.0906315-1.996006,1.6459846
			c-0.545578,0.5553532-0.9115105,1.1133823-1.097805,1.6754265c-0.3326683,1.4987831-0.4990005,2.3083916-0.4990005,2.428833
			c0,0.8832092,0.6121063,1.3248177,1.8363266,1.3248177c0.5721893,0,1.5302734-0.4951363,2.8742523-1.485405
			c-0.2262154-0.628952-0.339325-1.231142-0.339325-1.8065681c0-0.8430653,0.1729889-1.7021885,0.5189629-2.5787106
			C42.9846954,27.3403893,43.4970055,26.3327255,44.1756477,25.1952553z M61.7005997,26.8813877
			c-2.3419838,2.6228695-3.5129738,4.4495125-3.5129738,5.4799252c0,0.575428,0.2328682,0.8631401,0.6986008,0.8631401
			c0.3858948,0,0.887558-0.2034073,1.5076523-0.612896c0.6174316-0.4068108,1.5861626-1.1334553,2.9035263-2.1772499v1.3850365
			c-1.8895531,1.8734779-3.3399849,3.2250595-4.3512993,4.0547447c-1.0113106,0.8296814-1.8363266,1.2445259-2.4750481,1.2445259
			c-1.0911522,0-1.6367264-0.7226295-1.6367264-2.1678848c0-0.4282227,0.0665321-0.8497543,0.1996002-1.2645988
			c0.1330681-0.4148407,0.3153687-0.8457413,0.5482368-1.2940369c0.2328682-0.4482975,0.589489-1.0906334,1.068531-1.9270077
			c0.4790421-0.8363762,1.0312691-1.7838211,1.6566849-2.8409977c-0.7584839,0.3880768-1.7099113,1.1575413-2.85429,2.3083935
			c-0.7451782,0.7226276-1.3772469,1.4091244-1.8962097,2.0581512c-0.518959,0.6490269-1.0751801,1.3716526-1.6660004,2.1678829
			c-0.5934792,0.7962303-1.0259476,1.3315086-1.2987366,1.6058388c-0.2727852,0.2743301-0.5482368,0.4108276-0.8276749,0.4108276
			c-0.4258156,0-0.818367-0.4482956-1.1776466-1.3448906s-0.5389214-1.9403877-0.5389214-3.1313858
			c0-0.7360115,0.0825005-1.3114357,0.250164-1.7262783c0.1650047-0.4148426,0.4950104-1.0036488,0.9873619-1.7664242
			c0.9181633-1.4184914,1.7099113-2.45961,2.375248-3.1206799c0.6653366-0.6637478,1.3040581-0.9942837,1.9161682-0.9942837
			c0.4258156,0,0.7677956,0.0736027,1.0286102,0.2208042c0.2581482,0.1472015,0.3885536,0.3746948,0.3885536,0.6824818
			c0,0.1338196-0.0399208,0.2743301-0.1197586,0.4215317c-0.0798416,0.1472034-0.1703262,0.281023-0.268795,0.4014606
			c-0.1011314,0.1204376-0.3100471,0.3546238-0.6294098,0.7025547c-2.1024628,2.3418484-3.1536903,3.8607063-3.1536903,4.5565701
			c0,0.3880768,0.1264114,0.5821171,0.3792381,0.5821171c0.1596832,0,0.468399-0.2569351,0.9288101-0.7734795
			c0.4577522-0.5138702,1.0499001-1.189661,1.775116-2.0260353s1.5834999-1.7102184,2.5761833-2.6201935
			c0.9900169-0.909977,2.1184273-1.7864971,3.3825684-2.6295624c0.7052536-0.4951344,1.2907486-0.7427006,1.756485-0.7427006
			c0.2129097,0,0.4218216,0.2944031,0.6280785,0.8832111c0.2062531,0.5888081,0.3100471,1.1843071,0.3100471,1.7864971
			C62.5588837,25.8309002,62.272789,26.2791977,61.7005997,26.8813877z M70.1836319,20.0967159h0.858284
			c0.7052536-1.2712898,1.3439789-2.1705608,1.9161682-2.7004871c0.5721893-0.5272503,1.2242203-0.7922134,1.9560852-0.7922134
			c0.7318726,0,1.0978088,0.1672745,1.0978088,0.5018234c0,0.1605854-0.2860947,0.595499-0.858284,1.3047447
			s-1.0046616,1.3047447-1.2974091,1.7864971c0.4524307,0.0535278,0.8542938,0.1003647,1.2069244,0.1405106
			c0.352623,0.0401459,0.6294022,0.0736008,0.8290024,0.1003647c-0.7584763,1.4184914-1.7099075,2.8704376-2.8542862,4.3558407
			c-0.3725891-0.0267658-0.6852951-0.0508518-0.9381256-0.0695877c-0.2528305-0.02141-0.5096436-0.0401459-0.7677994-0.0615559
			c-0.2608109-0.0187359-0.5761795-0.0428238-0.9487686-0.0695877c-0.7185593,1.1642342-1.3213577,2.2053528-1.8057175,3.1206818
			c-0.48703,0.918005-0.8596191,1.7570553-1.1177673,2.5198288c-0.2608109,0.7627754-0.3898849,1.4854031-0.3898849,2.1678829
			c0,0.9233589,0.3659363,1.3850365,1.0978012,1.3850365c0.5056534,0,1.1683273-0.2703133,1.9853668-0.8136253
			c0.8196945-0.5406303,1.9135056-1.3743305,3.2840958-2.4984169v1.3448906
			c-3.5928116,3.9209251-6.2475052,5.8813858-7.9640732,5.8813858c-0.5988007,0-1.0818329-0.2341843-1.4464417-0.7025528
			c-0.3672638-0.4683723-0.5495644-1.0705605-0.5495644-1.806572c0-0.4951324,0.102459-1.0839386,0.3100471-1.7664223
			c0.2049217-0.6824799,0.574852-1.7128944,1.1071167-3.0912399c-0.1862946,0.1605835-0.3632736,0.318491-0.5296097,0.4710445
			c-0.1663284,0.1552315-0.3193588,0.295742-0.4577484,0.4228725c-0.1410522,0.1271286-0.2900848,0.2596092-0.4497681,0.4014587
			c-0.1596794,0.1391735-0.3193588,0.283699-0.4790421,0.4309006v-1.3850365
			c1.3972092-1.1776161,3.0871582-3.2451344,5.0698624-6.2025547c-0.1996002-0.013382-0.3858948-0.0227489-0.5588837-0.0294399
			s-0.3792419-0.0107059-0.6187592-0.0107059c-0.7851028,0-1.3705978,0.0535278-1.7564926,0.1605835
			c-0.1596756,0.0401459-0.3100433,0.0843067-0.4484329,0.1311436c-0.1410522,0.0468369-0.2368622,0.0695877-0.2900848,0.0695877
			c-0.0532303,0-0.0798416-0.0401478-0.0798416-0.1204395c0-0.4416046,0.272789-1.1040134,0.8183594-1.9872265
			c0.4391251-0.7493916,0.8542938-1.3047428,1.2468414-1.6660576c0.3925476-0.3613129,0.8715897-0.604866,1.4371262-0.7333336
			C68.3632736,20.1609497,69.1590118,20.0967159,70.1836319,20.0967159z M75.7325363,26.9215336
			c2.0226212-1.8467159,3.9853592-3.2183704,5.8882217-4.1149635c1.9028625-0.896595,3.3732529-1.3448906,4.4111786-1.3448906
			c0.2794418,0,0.5389252,0.1177616,0.7784424,0.3506069c0.2395248,0.2355232,0.4284744,0.5058403,0.5695267,0.8136253
			c0.1383896,0.3077869,0.2089157,0.5352802,0.2089157,0.6824818c0,0.2408772-0.0931473,0.4188576-0.2794418,0.5326042
			s-0.5123062,0.2502422-0.9780426,0.4108276c0.0931473,0.2141113,0.2129059,0.4884415,0.3592834,0.8229923
			c0.1463699,0.334549,0.2594757,0.606205,0.3393173,0.8136253s0.1197662,0.3907547,0.1197662,0.5513382
			c0,0.321167-0.3233566,0.920681-0.9673996,1.7958641c-0.6467056,0.8778591-1.0991364,1.522871-1.3572845,1.9377117
			c-0.2608185,0.4148426-0.3898926,0.9233589-0.3898926,1.5255489c0,0.9902687,0.4524307,1.4854012,1.3572845,1.4854012
			c0.9314728,0,2.3885574-0.8765221,4.3712616-2.6295624v1.224453c-3.3666,3.7603416-5.775116,5.6405106-7.2255478,5.6405106
			c-0.5189667,0-0.8888931-0.1699524-1.1071243-0.5125313c-0.2208862-0.339901-0.3300018-0.8457413-0.3300018-1.514843
			c0-1.0571747,0.3792419-2.5894127,1.1377258-4.596714c-1.9427872,2.1678848-3.3865662,3.7108269-4.331337,4.6261559
			c-0.9447784,0.9180069-1.7232208,1.3756676-2.3353348,1.3756676c-0.2927475,0-0.6586838-0.2542572-1.0978012-0.7627716
			c-0.4391251-0.5085144-0.8276825-1.1669121-1.1683273-1.9778595c-0.3379974-0.8082733-0.5083237-1.6486626-0.5083237-2.5184917
			c0-0.6289539,0.0598831-1.1535282,0.1796417-1.5763988c0.1197662-0.4201946,0.3526306-0.8524323,0.6986084-1.2940388
			C74.4218216,28.2262783,74.9740524,27.6441612,75.7325363,26.9215336z M85.2934113,24.7135029
			c-3.4597473,1.5924587-5.9254837,2.9440403-7.395874,4.0547447c-1.4703903,1.1107063-2.2049255,2.2548676-2.2049255,3.4324818
			c0,0.4282227,0.0731888,0.7801704,0.2195663,1.0531654c0.1463699,0.2756691,0.3459702,0.4121628,0.5988007,0.4121628
			c0.1463699,0,0.4058533-0.0936737,0.7784424-0.2810211c1.3972092-0.8296852,2.6746521-1.9096107,3.8323364-3.2411194
			S83.6699905,27.0018253,85.2934113,24.7135029z M102,30.5547447v1.3448906
			c-1.4238205,1.4051094-2.5841675,2.4957428-3.483696,3.2718964c-0.8968735,0.7761574-1.735199,1.3783455-2.5149765,1.806572
			c-0.7771072,0.4282227-1.5395813,0.642334-2.2847595,0.642334c-0.7318726,0-1.403862-0.29039-2.0159683-0.8738441
			c-0.6121063-0.58078-1.0911484-1.3435516-1.4371262-2.2883224c-0.3459778-0.9420891-0.518959-1.9430656-0.518959-3.0002422
			c0-0.9099751,0.1996002-1.7195854,0.5988007-2.4288311s1.17099-1.6259136,2.3153687-2.75
			c1.3572845-1.3381996,2.6174316-2.3712902,3.7817688-3.1019478c1.1643372-0.7279797,2.0798416-1.0933075,2.7451782-1.0933075
			c0.4790421,0,0.8848953,0.1672745,1.2175598,0.5018234c0.3326721,0.3345509,0.4990082,0.7560825,0.4990082,1.2645988
			c0,0.4282246-0.2195663,1.0371056-0.6586838,1.826643c-0.4391251,0.7895374-0.9314728,1.4746952-1.4770508,2.0581512
			c-0.5455704,0.5807781-0.9780426,0.8725052-1.2974014,0.8725052c-0.3459778,0-0.5189667-0.1873474-0.5189667-0.5620441
			c0.0133133-0.1070557,0.0226288-0.2074203,0.0306091-0.3010941c0.0053253-0.0936737,0.0093155-0.1873474,0.0093155-0.281023
			c0-0.1605835-0.0572205-0.2502422-0.1689987-0.2716541c-0.1144333-0.018734-0.2501602,0.0307789-0.4098434,0.1512165
			c-1.3306732,0.9367409-2.2421799,1.5964718-2.7345352,1.9765205c-0.4923477,0.3827248-0.8822327,0.7667885-1.1669922,1.1548672
			c-0.2874298,0.3880768-0.4298096,0.7962284-0.4298096,1.224453c0,0.7895355,0.2528229,1.4318733,0.7584839,1.9270058
			c0.5056534,0.4951363,1.1643372,0.7427025,1.9760437,0.7427025c0.8383255,0,1.8469772-0.3238449,3.0232925-0.9728737
			C99.0166321,32.7467155,100.4031906,31.7992706,102,30.5547447z M108.9261475,20.0967159h0.858284
			c0.7052536-1.2712898,1.3439789-2.1705608,1.9161682-2.7004871c0.5721893-0.5272503,1.2242203-0.7922134,1.9560852-0.7922134
			c0.7318726,0,1.0978088,0.1672745,1.0978088,0.5018234c0,0.1605854-0.2860947,0.595499-0.858284,1.3047447
			s-1.0046616,1.3047447-1.2974091,1.7864971c0.4524307,0.0535278,0.8542938,0.1003647,1.2069244,0.1405106
			c0.352623,0.0401459,0.6294022,0.0736008,0.8290024,0.1003647c-0.7584763,1.4184914-1.7099075,2.8704376-2.8542862,4.3558407
			c-0.3725891-0.0267658-0.6852951-0.0508518-0.9381256-0.0695877c-0.2528305-0.02141-0.5096512-0.0401459-0.7677994-0.0615559
			c-0.2608109-0.0187359-0.5761795-0.0428238-0.9487686-0.0695877c-0.7185593,1.1642342-1.3213577,2.2053528-1.8057175,3.1206818
			c-0.48703,0.918005-0.8596191,1.7570553-1.1177673,2.5198288c-0.2608109,0.7627754-0.3898849,1.4854031-0.3898849,2.1678829
			c0,0.9233589,0.3659286,1.3850365,1.0978012,1.3850365c0.5056534,0,1.1683273-0.2703133,1.9853668-0.8136253
			c0.8196869-0.5406303,1.9135056-1.3743305,3.2840958-2.4984169v1.3448906
			c-3.5928116,3.9209251-6.2475052,5.8813858-7.9640732,5.8813858c-0.5988007,0-1.0818329-0.2341843-1.4464417-0.7025528
			c-0.3672638-0.4683723-0.5495682-1.0705605-0.5495682-1.806572c0-0.4951324,0.1024628-1.0839386,0.310051-1.7664223
			c0.2049179-0.6824799,0.5748444-1.7128944,1.1071167-3.0912399c-0.1862946,0.1605835-0.3632736,0.318491-0.5296097,0.4710445
			c-0.1663284,0.1552315-0.3193588,0.295742-0.4577484,0.4228725c-0.1410522,0.1271286-0.2900848,0.2596092-0.4497681,0.4014587
			c-0.1596832,0.1391735-0.3193588,0.283699-0.4790421,0.4309006v-1.3850365
			c1.3972092-1.1776161,3.0871582-3.2451344,5.0698624-6.2025547c-0.1996002-0.013382-0.3858948-0.0227489-0.5588837-0.0294399
			s-0.3792419-0.0107059-0.6187592-0.0107059c-0.7851028,0-1.3705978,0.0535278-1.7564926,0.1605835
			c-0.1596756,0.0401459-0.3100433,0.0843067-0.4484329,0.1311436c-0.1410522,0.0468369-0.2368622,0.0695877-0.2900848,0.0695877
			c-0.0532303,0-0.0798416-0.0401478-0.0798416-0.1204395c0-0.4416046,0.272789-1.1040134,0.8183594-1.9872265
			c0.4391251-0.7493916,0.8542938-1.3047428,1.2468414-1.6660576c0.3925476-0.3613129,0.8715897-0.604866,1.4371262-0.7333336
			C107.1057892,20.1609497,107.9015274,20.0967159,108.9261475,20.0967159z M147.7884216,21.0200729
			c-1.3040619,1.9270077-2.4018555,3.673357-3.2934113,5.2390518c-0.8915558,1.5656929-1.5608826,2.8998775-2.0066528,4.0052299
			c-0.4457703,1.1026764-0.6679993,1.9229927-0.6679993,2.4582748c0,0.9902649,0.4324646,1.4854012,1.2974091,1.4854012
			c0.9181671,0,2.9940033-1.2579079,6.2275391-3.7737236l-0.039917,1.3850365
			c-3.7391815,3.8406334-6.4803772,5.7609482-8.2235565,5.7609482c-2.0758514,0-3.1137695-1.0839424-3.1137695-3.2518234
			c0-1.2980537,0.6320648-3.1380787,1.8962097-5.5200748c1.2641296-2.3819942,3.1936188-5.4598541,5.7884216-9.2335758
			c-3.0472412,3.345499-5.5928192,6.095499-7.6353912,8.25c-2.0425873,2.154501-4.1543579,4.2420921-6.3366699,6.2627754
			c-0.5189514,0.4951324-0.9913483,0.9474449-1.41716,1.3555946s-0.8516235,0.7293167-1.2774506,0.9635048
			c-0.4258118,0.2341843-0.8915405,0.350605-1.3972015,0.350605c-0.7850952,0-1.4371262-0.307785-1.9560852-0.9233551
			c-0.5189667-0.6155739-0.7784424-1.4854012-0.7784424-2.6094894c0-0.7226295,0.2129059-1.5616798,0.6387177-2.5184917
			c0.4258194-0.9568119,1.0711899-2.0715332,1.9361267-3.342823c0.8649445-1.2712898,1.9294739-2.6630173,3.1936188-4.1751823
			c2.0492249-2.475668,3.4664001-4.2220192,4.2514954-5.2390499c0.7850952-1.0170326,1.1776428-1.6660595,1.1776428-1.9470806
			c0-0.2007303-0.1064453-0.301095-0.3193665-0.301095c-0.2528229,0-0.6759796,0.1177616-1.2681274,0.3519468
			c-0.5921478,0.2341843-1.3732452,0.6155701-2.344635,1.1428223c-0.9713898,0.5299263-2.222229,1.2819939-3.7525024,2.2588806
			c-1.1443787,0.7226276-2.272789,1.3087578-3.3825684,1.7557182c-1.112442,0.4496346-1.8935471,0.6731129-2.3459702,0.6731129
			c-0.2661362,0-0.4883575-0.0736008-0.6693344-0.2208023c-0.1783066-0.1472015-0.2687912-0.3345509-0.2687912-0.5620441
			c0-0.321167,0.1397171-0.8457413,0.4191589-1.5763988c0.2794418-0.7279797,0.6427155-1.4854012,1.0871582-2.2669106
			c0.4457779-0.7841835,0.8423157-1.3689775,1.1882935-1.7570553c0.9580841-1.0705595,2.2687988-2.0139904,3.9321365-2.8302917
			c1.6633453-0.8163023,3.3732452-1.4452553,5.1297455-1.8868618c1.756485-0.4416056,3.2069092-0.6624088,4.3512878-0.6624088
			c0.8516388,0,1.473053,0.1445255,1.8669434,0.4322386c0.3912048,0.2877131,0.58815,0.7587595,0.58815,1.4144773
			c0,1.4318733-0.1796417,2.5385647-0.5389252,3.3227491c-0.3592834,0.7815084-0.9580841,1.7958632-1.796402,3.0403891
			c-0.3060608,0.4817524-0.7624817,1.1414852-1.3666077,1.9778595c-0.606781,0.8363743-1.2188873,1.6526756-1.836319,2.448904
			c-0.6201019,0.7962303-1.128418,1.4613152-1.5276184,1.9965935c-0.3992004,0.5352802-0.8117065,1.1240883-1.2375183,1.7664242
			c-1.1576843,1.7128963-1.8895569,2.8169098-2.1956177,3.3120441c-0.3060455,0.4951344-0.4590759,0.923357-0.4590759,1.2846718
			c0,0.4683685,0.2195587,0.7025547,0.6586761,0.7025547c0.3992004,0,0.7850952-0.1431885,1.1576843-0.4309006
			c0.3725891-0.287714,1.1710052-0.9675179,2.3952179-2.0380783c1.4105072-1.217762,2.7810974-2.4957409,4.1117706-3.8339405
			s2.5415802-2.6121655,3.6327362-3.8245754c1.091156-1.2097321,2.4750519-2.7794399,4.1517029-4.7064476
			c1.8762512-2.1946468,3.0738525-3.5663013,3.592804-4.1149635c0.5189667-0.5486612,0.9447784-0.8229923,1.2774506-0.8229923
			c0.2927551,0,0.5548859,0.2381992,0.7877655,0.7132607c0.2328644,0.4750605,0.3499603,1.1401453,0.3499603,1.9965935
			c0,0.4549875-0.2302094,1.0611925-0.6879578,1.8172741C150.2727814,17.3306561,149.2920837,18.8120441,147.7884216,21.0200729z
			 M149.0858307,31.076643v-0.4817524c3.433136-3.6399021,5.7950745-6.1891727,7.0858307-7.64781
			c0.2927399-1.6459866,0.9980011-2.4689789,2.1157684-2.4689789c0.2794342,0,0.5788422,0.0802917,0.8981934,0.2408772
			l0.1197662,0.3813858c-0.0532227,0.1605835-0.079834,0.3880787-0.079834,0.6824818
			c0,0.2542591,0.0957947,0.7266426,0.2900848,1.4158154c0.1916046,0.6891727,0.34198,1.2672749,0.4484253,1.7356453
			c0.1064606,0.4683685,0.1596832,0.9969578,0.1596832,1.5857658c0,0.8832111-0.1996002,1.7302914-0.5988007,2.5399036
			c-0.3992004,0.8096104-0.9780426,1.5844269-1.7365265,2.3284664c-0.7584839,0.7413635-1.7365265,1.501461-2.9341278,2.2776146
			c0.4790344,0.0802917,0.8582764,0.1204376,1.1377258,0.1204376c0.545578,0,1.133728-0.1364937,1.7671356-0.4121628
			c0.6307373-0.272995,1.2774353-0.6423378,1.9347839-1.1026764c0.6600189-0.4630184,1.4278107-1.0611935,2.3060608-1.7972031
			v1.3448906c-1.7032623,1.6727486-3.2268829,2.9413605-4.5708618,3.8031616
			c-1.3439789,0.8644791-2.5016632,1.2953796-3.473053,1.2953796c-1.250824,0-2.4085083-0.5352821-3.473053-1.6058426
			c-0.625412-0.642334-1.0153046-1.2579079-1.168335-1.846714C149.1616821,32.8765221,149.0858307,32.0802917,149.0858307,31.076643
			z M156.5309448,28.0054741l-0.3592834-2.9306564c-0.8250275,0.936739-2.5881653,2.736618-5.2894287,5.3996353
			c0.7984009,0.1739655,1.3439789,0.4081497,1.636734,0.7025547c0.2927399,0.2944031,0.705246,0.8631382,1.2375183,1.7062054
			c0.9048615-0.3746986,1.599472-0.8858891,2.0865021-1.5349159c0.4843597-0.6490269,0.7278748-1.536253,0.7278748-2.6603413
			c0-0.1338196-0.0039978-0.2542572-0.0093231-0.3613129C156.5535583,28.2195873,156.5442505,28.1125298,156.5309448,28.0054741z"/>
	</defs>
	<path  id='magic-path'  d="M26.6843166,28.1196384c3.5285492-2.4691658,6.534914-5.6808491,8.7659283-9.3645992
			c0.8346672-1.3781643,1.5016823-3.3171387,0.3586273-4.4526739c-0.381134-0.3786297-0.9015312-0.5806084-1.4177513-0.7294111
			c-4.266573-1.2298565-8.9671078,0.6540394-12.1357098,3.7646904s-5.0636024,7.2738056-6.6375332,11.4257851
			c-0.660738,1.7430058-1.2861996,3.5557194-1.2148361,5.4183941c0.0713625,1.8626747,0.9888144,3.8058968,2.6821022,4.5852699
			c1.5465946,0.711853,3.3568134,0.3328171,4.9947453-0.1318016c5.0402908-1.4297333,9.8811436-3.560688,14.3395443-6.312294
			c-0.7142525,1.4794273,1.0285988,3.211132,2.6646271,3.0618973s2.9085579-1.4763374,3.8203926-2.8428764
			c1.1173019-1.674469,1.9428787-3.5430279,2.428524-5.4965801c0.1706161-0.6863194,0.2828979-1.4713249-0.1218224-2.0512791
			c-0.5862389-0.8400707-1.8651161-0.739378-2.8200531-0.3685741c-2.6551056,1.0309906-4.7511978,3.6977425-4.5928078,6.5415878
			c0.1583862,2.8438435,2.989994,5.4056149,5.7785416,4.8254986c2.2742119-0.473114,3.7622795-2.5981903,5.0149193-4.5544033
			c1.2755432-1.9919777,2.5510826-3.9839573,3.8266258-5.9759369c0.1711884-0.5621834-1.0329742-0.1210728-0.7000618,0.363203
			c0.3329124,0.4842777,1.0755157,0.3202782,1.6217117,0.1034317c2.0307007-0.8062172,4.0613976-1.6124325,6.0920982-2.4186478
			c-2.8263741,2.2573528-4.3646278,6.0283718-3.9235535,9.6185646c7.3450813-3.6670017,15.1491776-7.7704906,18.9659576-15.038866
			c-5.7936935,3.7417355-8.0680923,10.9645844-9.9289703,17.6057072c2.7320099-0.9523315,5.2712021-2.4541702,7.4216995-4.3896675
			c-0.3060989,1.1944771,0.8583603,2.3693085,2.0826645,2.5160599c1.2243118,0.1467514,2.4123688-0.4327545,3.4676285-1.0706406
			c3.3640976-2.033535,6.2532959-4.8472347,8.3751755-8.1563206c-2.6997833-0.8540668-5.9935837,0.1161461-7.4578476,2.5398216
			s-0.5439224,6.0930157,2.0582733,7.2096272c2.776062,1.1912193,5.8561401-0.6050148,8.3386002-2.3263283
			c3.9463348-2.736351,7.8926697-5.4727039,11.8390121-8.2090549c-2.8822632,1.7514744-5.6047592,3.7657413-8.1226807,6.0096493
			c-0.4963074,0.4422932-1.0057373,0.9262905-1.1929169,1.5641804c-0.3164215,1.0783672,0.4562683,2.254343,1.487381,2.7013416
			c1.0311127,0.4469948,2.2243271,0.3121529,3.3031311-0.0027962c7.3414612-2.1432838,10.3116379-11.1233788,16.7683258-15.2223949
			c-3.3723831,4.5688248-6.7447662,9.1376514-10.1171494,13.7064762c-0.475563,0.6442871-0.9581833,1.5388985-0.4792938,2.1807213
			c0.5422211,0.7267151,1.6888504,0.3394585,2.4628372-0.132843c5.8165131-3.5493698,10.6825485-8.4259968,15.9506226-12.7477188
			s11.2267532-8.2124834,17.9692001-9.1970034c1.0019073,1.2433634-0.5425873,2.8936815-1.8395538,3.825181
			c-4.2419739,3.0466709-7.5539551,7.1855335-10.809166,11.2696781c-1.3656845,1.7134571-2.5367508,4.6476574-0.6104507,5.6918621
			c1.4962006,0.811058,3.1756134-0.5953407,4.4013672-1.7759953c6.3999481-6.1644249,15.8533325-9.3021259,20.2295837-17.035677
			c-4.137085,4.4563866-7.5413513,9.5915489-10.0350494,15.137392c-0.3221741,0.7164955-0.6338959,1.5244884-0.3765717,2.2667446
			c0.5349731,1.5430908,2.7623749,1.3761101,4.3038635,0.8365402c5.793396-2.0278873,11.2371674-5.0504932,16.0214844-8.8957825
			c-2.7012634,3.2170868-5.4025116,6.4341755-8.1037598,9.6512642c3.7034912,0.5014038,7.6220856-1.2437096,9.7270203-4.3318424" stroke='#000' stroke-width='5' fill='none' stroke-linecap='round' stroke-linejoin='round' mask='url(#mask-example)'/>





</svg>
