<?xml version="1.0" encoding="utf-8"?>
<!-- Generator: Adobe Illustrator 24.1.2, SVG Export Plug-In . SVG Version: 6.00 Build 0)  -->
<svg version="1.1" id="Layer_1" xmlns="http://www.w3.org/2000/svg" xmlns:xlink="http://www.w3.org/1999/xlink" x="0px" y="0px"
	 viewBox="0 0 32 32" width='50' height='50' style="enable-background:new 0 0 32 32;" xml:space="preserve">
<style type="text/css">
	.st0{fill:#FFFFFF;}
</style>
<g>
	<path class="st0" d="M16,0C7.1782975,0,0,7.1767492,0,16s7.1782975,16,16,16s16-7.1767502,16-16S24.821703,0,16,0z M16,30.9342632
		C7.7660122,30.9342632,1.0676645,24.2345028,1.0676645,16S7.7660122,1.0657353,16,1.0657353S30.9323349,7.7654982,30.9323349,16
		S24.2339897,30.9342632,16,30.9342632z"/>
	<path class="st0" d="M19.4923611,7.0190845h-2.6621761c-3.390584-0.0339279-3.823637,2.0646129-3.823637,4.3357863v1.6514902
		h-1.496726c-0.2943554-0.0339279-0.5338316,0.204566-0.498908,0.4989405v2.993638
		c-0.0349236,0.2943745,0.2045527,0.5328674,0.498908,0.4989395h1.496726v7.4840965
		c-0.0309324,0.2943745,0.2075462,0.5328674,0.5019026,0.4989395h3.0483313
		c0.2943573,0.0339279,0.532835-0.204565,0.4390411-0.4989395l0.0019951-7.4840965h2.4945431
		c0.2943554,0.0339279,0.5338306-0.204565,0.498909-0.4989395v-2.993638
		c0.0349216-0.2943745-0.2045536-0.5328684-0.498909-0.4989405h-2.4975376l0.0029945-1.4968185
		c0.0967884-0.6376457,0.0967884-0.5338659,0.6884937-0.4989405h1.7850952
		c0.1386967-0.0309343,0.2863731-0.0139704,0.3901463-0.1147556s0.1636429-0.2384939,0.1287193-0.3841839V7.518024
		C20.0261917,7.2236495,19.7867165,6.9851565,19.4923611,7.0190845z M18.9585285,9.9568415l-1.2512627-0.0478983
		c-1.5496101,0-1.679327,0.8412132-1.679327,1.702383l-0.0039902,1.8919792c0,0.1416988,0.0558758,0.2774105,0.1556587,0.3781958
		c0.0997829,0.0997887,0.2354851,0.1556692,0.3771744,0.1556692h2.4366703v1.9279041h-2.4346752
		c-0.2943554,0-0.532835,0.238493-0.5338326,0.5328674l-0.0009956,7.4850941h-2.0195827v-7.4840965
		c0-0.2943745-0.2005615-0.5328684-0.4959154-0.5328684h-1.4997196V14.038168h1.4997196
		c0.1416903,0,0.2773933-0.0558805,0.3771753-0.1556692c0.099782-0.1007853,0.1177425-0.2364979,0.1177425-0.3781958v-2.1504307
		c0-2.2372456,0.4520111-3.3029804,2.825819-3.3029804h2.1283436v1.9059496H18.9585285z"/>
</g>
</svg>
