<?xml version="1.0" encoding="utf-8"?>
<!-- Generator: Adobe Illustrator 24.1.2, SVG Export Plug-In . SVG Version: 6.00 Build 0)  -->
<svg version="1.1" id="Layer_1" xmlns="http://www.w3.org/2000/svg" xmlns:xlink="http://www.w3.org/1999/xlink" x="0px" y="0px"
	 viewBox="0 0 19.9999981 19.9999981" style="enable-background:new 0 0 19.9999981 19.9999981;" xml:space="preserve">
<style type="text/css">
	.st0{fill:#FFFFFF;}
</style>
<path class="st0" d="M10,7c-1.6568546,0-3,1.3431454-3,3s1.3431454,3,3,3s3-1.3431454,3-3S11.6568546,7,10,7z M10,5
	c2.7614241,0,5,2.2385759,5,5s-2.2385759,5-5,5s-5-2.2385759-5-5S7.2385759,5,10,5z M16.5,4.75C16.5,5.4403558,15.9403553,6,15.25,6
	S14,5.4403558,14,4.75s0.5596447-1.25,1.25-1.25S16.5,4.0596442,16.5,4.75z M10,2C7.526,2,7.1219997,2.007,5.9710002,2.0580001
	C5.1870003,2.0950003,4.6610003,2.2000003,4.1730003,2.3899999c-0.434,0.1680002-0.7469997,0.369-1.0799999,0.7030001
	c-0.312993,0.3023992-0.553647,0.6715837-0.704,1.0799999C2.1990004,4.6630001,2.0940003,5.1879997,2.0580006,5.9709997
	C2.006,7.0749998,2,7.4610004,2,10c0,2.474,0.007,2.8780003,0.0580001,4.0289993
	c0.0370002,0.7830009,0.1420002,1.3099995,0.3309999,1.7970009C2.559,16.2609997,2.7589998,16.5739994,3.0910001,16.9060001
	C3.428,17.2420006,3.7410002,17.4430008,4.171,17.6089993c0.494,0.191,1.02,0.2970009,1.7999997,0.3330002
	C7.0749998,17.9939995,7.4610004,18,10,18c2.474,0,2.8780003-0.007,4.0289993-0.0580006
	c0.7819996-0.0370007,1.309-0.1420002,1.7970009-0.3309994c0.4330006-0.1690006,0.7479992-0.3700008,1.0799999-0.7019997
	c0.3369999-0.3369999,0.5380001-0.6499996,0.7040005-1.0799999c0.1900005-0.493,0.2959995-1.0200005,0.3320007-1.7999992
	c0.052-1.1040001,0.0580006-1.4899998,0.0580006-4.0289993c0-2.474-0.007-2.8780003-0.0580006-4.0289998
	c-0.0370007-0.7820001-0.1420002-1.3099999-0.3320007-1.7979999c-0.1507072-0.4079981-0.3909245-0.7770395-0.7029991-1.0799999
	c-0.3022671-0.3131537-0.6714897-0.553833-1.0799999-0.704c-0.4899998-0.1900001-1.0160007-0.2950001-1.7980003-0.3309999
	C12.9250002,2.006,12.5389996,2,10,2z M10,0c2.717,0,3.0559998,0.01,4.1219997,0.0599999
	c1.0650005,0.05,1.789999,0.217,2.4279995,0.4649999c0.6599998,0.2539999,1.2159996,0.598,1.7719994,1.1530001
	c0.5084934,0.499896,0.9019527,1.104589,1.1529999,1.7719998c0.2469997,0.6370001,0.4150009,1.3629999,0.4650002,2.428
	C19.9869995,6.9440002,19.9999981,7.283,19.9999981,10s-0.0100002,3.0559998-0.0599995,4.1219997
	c-0.0499992,1.0650005-0.2180004,1.789999-0.4650002,2.4279995c-0.2503242,0.6677761-0.6438789,1.2726173-1.1529999,1.7719994
	c-0.5000381,0.5083199-1.1046906,0.9017525-1.7719994,1.1529999c-0.6369991,0.2469997-1.3630009,0.4150009-2.4279995,0.4650002
	C13.0559998,19.9869995,12.717,19.9999981,10,19.9999981s-3.0559998-0.0100002-4.1220002-0.0599995
	c-1.0650001-0.0499992-1.79-0.2180004-2.428-0.4650002C2.7823262,19.224472,2.177527,18.8309422,1.678,18.3219986
	c-0.5085936-0.499815-0.9020686-1.1045303-1.1529999-1.7719994c-0.2479999-0.6369991-0.415-1.3630009-0.4649999-2.4279995
	C0.013,13.0559998,0,12.717,0,10s0.01-3.0559998,0.0599999-4.1220002s0.217-1.79,0.4649999-2.428
	C0.7752359,2.7821794,1.1688037,2.177321,1.678,1.678c0.499671-0.5087688,1.1044283-0.9022706,1.7719998-1.1529999
	c0.638-0.2479999,1.362-0.415,2.428-0.4649999C6.9440002,0.013,7.283,0,10,0z"/>
</svg>
