<svg viewBox="0 0 97 94" fill="#F9804B" xmlns="http://www.w3.org/2000/svg" class="v-icon__component theme--light" style="font-size: 36px; height: 36px; width: 36px;"><path fill-rule="evenodd" clip-rule="evenodd" d="M25 92C37.7025 92 48 81.7025 48 69C48 56.2975 37.7025 46 25 46C12.2975 46 2 56.2975 2 69C2 81.7025 12.2975 92 25 92ZM21.3565 73.9255L36.049 60.4676C36.7733 59.8043 37.8983 59.853 38.5624 60.5773C39.2257 61.3023 39.1762 62.4273 38.452 63.0906L22.4522 77.7461C21.7294 78.4086 20.6075 78.3615 19.9427 77.6403L11.4922 68.4787C11.0482 68.0139 10.8899 67.3452 11.0776 66.7298C11.2652 66.1152 11.7702 65.6495 12.3987 65.5121C13.0273 65.3747 13.6805 65.5862 14.1083 66.0673L21.3565 73.9255Z"></path><path d="M24.9346 43.8182C28.4092 43.8174 31.8446 44.5432 35.022 45.9485V22.9476C35.022 21.9654 35.8181 21.1686 36.801 21.1686H39.0665V15.7388C39.0665 14.7558 39.8626 13.9598 40.8455 13.9598H44.8183V11.8286C44.8183 10.8464 45.6151 10.0496 46.5973 10.0496C47.5803 10.0496 48.3764 10.8464 48.3764 11.8286V13.9598H52.4603C53.4432 13.9598 54.2393 14.7558 54.2393 15.7388V21.1686H56.6152V14.1196C56.6152 13.1374 57.4121 12.3406 58.3943 12.3406H62.967V6.81194C62.967 5.82899 63.7631 5.0329 64.746 5.0329H74.9732V1.77904C74.9732 0.796862 75.77 0 76.7522 0C77.7352 0 78.5313 0.796862 78.5313 1.77904V5.0329H88.3361C89.3182 5.0329 90.1151 5.82899 90.1151 6.81194V12.3406H94.687C95.6692 12.3406 96.4661 13.1374 96.4661 14.1196V79.4245C96.4661 80.4066 95.6692 81.2035 94.687 81.2035H46.5371C40.4927 91.6878 27.7931 96.3184 16.4185 92.1843C5.04466 88.051 -1.71864 76.3459 0.380074 64.4277C2.47879 52.5087 12.8326 43.8182 24.9346 43.8182ZM86.557 8.59098H66.525V12.3406H86.557V8.59098ZM71.0614 77.6454H74.9732V66.7519H71.0614V77.6454ZM78.5313 77.6454H82.0206V66.7519H78.5313V77.6454ZM60.1733 77.6454H67.5034V64.9728C67.5034 63.9899 68.2995 63.1938 69.2824 63.1938H83.7997C84.7818 63.1938 85.5787 63.9899 85.5787 64.9728V77.6454H92.908V15.8986H60.1733V77.6454ZM50.6812 17.5178H42.6246V21.1686H50.6812V17.5178ZM38.58 24.7267V47.8843C39.8703 48.7298 41.0803 49.6927 42.1937 50.7614C42.3651 50.7081 42.5435 50.6818 42.7234 50.6818H52.3831C53.366 50.6818 54.1621 51.4787 54.1621 52.4609C54.1621 53.4438 53.366 54.2399 52.3831 54.2399H45.2098C45.6777 54.8924 46.1147 55.5672 46.5193 56.2645C47.0081 57.1092 47.4451 57.981 47.8304 58.8775H52.3831C53.366 58.8775 54.1621 59.6736 54.1621 60.6565C54.1621 61.6387 53.366 62.4355 52.3831 62.4355H49.0551C49.5068 64.1636 49.7709 65.9349 49.845 67.7194H52.3831C53.366 67.7194 54.1621 68.5155 54.1621 69.4984C54.1621 70.4806 53.366 71.2775 52.3831 71.2775H49.7369C49.5145 73.4573 49.008 75.5984 48.2289 77.6462H56.6152V51.1864V24.7267H38.58ZM24.9346 90.1265C32.9178 90.1412 40.2402 85.6943 43.9079 78.6037V78.6021C45.4978 75.5629 46.3224 72.1817 46.3108 68.7518C46.3116 56.9471 36.7416 47.3762 24.9369 47.3762C13.1314 47.3755 3.56135 56.9448 3.56058 68.7502C3.55981 80.5549 13.1299 90.1257 24.9346 90.1265Z"></path><path d="M87.3198 34.6137H65.7536C64.7714 34.6137 63.9746 33.8177 63.9746 32.8347C63.9746 31.8525 64.7714 31.0557 65.7536 31.0557H87.3198C88.302 31.0557 89.0989 31.8525 89.0989 32.8347C89.0989 33.8177 88.302 34.6137 87.3198 34.6137Z"></path><path d="M87.3198 44.5337H65.7536C64.7714 44.5337 63.9746 43.7376 63.9746 42.7546C63.9746 41.7724 64.7714 40.9756 65.7536 40.9756H87.3198C88.302 40.9756 89.0989 41.7724 89.0989 42.7546C89.0989 43.7376 88.302 44.5337 87.3198 44.5337Z"></path><path d="M87.3198 54.4555H65.7536C64.7714 54.4555 63.9746 53.6587 63.9746 52.6765C63.9746 51.6936 64.7714 50.8975 65.7536 50.8975H87.3198C88.302 50.8975 89.0989 51.6936 89.0989 52.6765C89.0989 53.6587 88.302 54.4555 87.3198 54.4555Z"></path><path d="M87.3198 24.6938H65.7536C64.7714 24.6938 63.9746 23.897 63.9746 22.9148C63.9746 21.9318 64.7714 21.1357 65.7536 21.1357H87.3198C88.302 21.1357 89.0989 21.9318 89.0989 22.9148C89.0989 23.897 88.302 24.6938 87.3198 24.6938Z"></path><path d="M52.3831 45.3979H43.1087C42.1258 45.3979 41.3297 44.6011 41.3297 43.6189C41.3297 42.6359 42.1258 41.8398 43.1087 41.8398H52.3831C53.366 41.8398 54.1621 42.6359 54.1621 43.6189C54.1621 44.6011 53.366 45.3979 52.3831 45.3979Z"></path><path d="M52.3831 36.771H43.1087C42.1258 36.771 41.3297 35.9749 41.3297 34.9919C41.3297 34.0098 42.1258 33.2129 43.1087 33.2129H52.3831C53.366 33.2129 54.1621 34.0098 54.1621 34.9919C54.1621 35.9749 53.366 36.771 52.3831 36.771Z"></path></svg>