<?xml version="1.0" encoding="utf-8"?>
<!-- Generator: Adobe Illustrator 24.1.2, SVG Export Plug-In . SVG Version: 6.00 Build 0)  -->
<svg version="1.1" id="Layer_1" xmlns="http://www.w3.org/2000/svg" xmlns:xlink="http://www.w3.org/1999/xlink" x="0px" y="0px"
	 viewBox="0 0 45.940506 61.1811981" style="enable-background:new 0 0 45.940506 61.1811981;" xml:space="preserve">
<style type="text/css">
	.st0{fill:#F9804B;}
	.st1{fill-rule:evenodd;clip-rule:evenodd;fill:#F9804B;}
	.st2{fill:#FEFEFE;}
</style>
<g>
	<g>
		<path class="st0" d="M30.3056984,61.1811981H0.961C0.4297,61.1811981,0,60.7504997,0,60.2187996V0.9629C0,0.4312,0.4297,0,0.961,0
			h44.0166016c0.2557983,0,0.5018997,0.1021,0.6815987,0.2837c0.1806984,0.1812,0.2821999,0.4268,0.2812996,0.6831
			L45.7705994,45.5737c-0.0009995,0.2529984-0.0997009,0.4942017-0.277401,0.6739006L30.9892998,60.8959999
			C30.8085995,61.0786018,30.5625,61.1811981,30.3056984,61.1811981z M1.9239,59.2564011h27.9803982l13.9433994-14.0834999
			L44.0108109,1.9258H1.9239V59.2564011z"/>
	</g>
	<g>
		<path class="st0" d="M30.3046989,61.1811981c-0.1229992,0-0.2469997-0.0234985-0.3652-0.0717964
			c-0.3603992-0.1489029-0.5966873-0.5005035-0.5966873-0.8906021v-7.2862015c0-5.7577972,2.5390873-8.3251991,8.2323875-8.3251991
			h7.2333984c0.3887024,0,0.7383003,0.2329025,0.8887024,0.5918007c0.1483994,0.358902,0.0683975,0.7719994-0.2041016,1.0484009
			L30.9892998,60.8959999C30.8056984,61.0820007,30.5576992,61.1811981,30.3046989,61.1811981z M37.5751991,46.5326996
			c-4.597599,0-6.3066006,1.7344017-6.3066006,6.3998985v4.9458008L42.5,46.5326996H37.5751991z"/>
	</g>
	<g>
		<rect x="1.0556999" y="0.9629" class="st1" width="43.829113" height="14.8002996"/>
	</g>
	<g>
		<path class="st2" d="M15.1660995,12.5723h-1.6827002v-1.4906998h1.6827002V12.5723z M18.3808994,11.3462h3.7939129v1.2261
			h-5.681612v-0.8305998l3.7011986-5.8135004h-3.7011986V4.7192001h5.5888996V5.4937L18.3808994,11.3462z M24.9042988,12.5723
			h-1.5516987V4.7192001h1.5516987V12.5723z M28.0254002,9.7216997V12.5723h-1.5703011V4.7192001h3.1026001
			c0.8973999,0,1.6074009,0.2265997,2.1123009,0.6802001C32.1739006,5.8520999,32.4365997,6.4751,32.4365997,7.2114
			c0,0.7554002-0.2626991,1.3589001-0.7665997,1.8125c-0.5049,0.4712-1.214901,0.6977997-2.1123009,0.6977997H28.0254002z
			 M28.0254002,8.4951h1.532299c0.4295998,0,0.7656002-0.1127996,0.9902-0.3584003
			c0.2236004-0.2269998,0.3359127-0.5287995,0.3359127-0.9061995c0-0.3780003-0.1123123-0.6797004-0.3359127-0.9444003
			c-0.2245998-0.2445998-0.5410004-0.3579001-0.9902-0.3579001h-1.532299V8.4951z"/>
	</g>
	<g>
		<path class="st0" d="M17.9501991,20.5009995h-7.249999c-0.5332003,0-0.9629002-0.4307003-0.9629002-0.9618988
			c0-0.5323009,0.4296999-0.9629002,0.9629002-0.9629002h7.249999c0.5332012,0,0.9629002,0.4305992,0.9629002,0.9629002
			C18.9130993,20.0702991,18.4834003,20.5009995,17.9501991,20.5009995z"/>
	</g>
	<g>
		<path class="st0" d="M17.9501991,24.5781002h-7.249999c-0.5332003,0-0.9629002-0.4306011-0.9629002-0.9619007
			c0-0.5321999,0.4296999-0.9629002,0.9629002-0.9629002h7.249999c0.5332012,0,0.9629002,0.4307003,0.9629002,0.9629002
			C18.9130993,24.1474991,18.4834003,24.5781002,17.9501991,24.5781002z"/>
	</g>
	<g>
		<path class="st0" d="M14.3261995,41.7001991c-0.5332003,0-0.9629002-0.4306984-0.9629002-0.9623985V14.4224005
			c0-0.5323009,0.4296999-0.9629002,0.9629002-0.9629002c0.5313005,0,0.9610004,0.4305992,0.9610004,0.9629002v26.3153992
			C15.2872,41.2695007,14.8575001,41.7001991,14.3261995,41.7001991z"/>
	</g>
	<g>
		<path class="st0" d="M17.9501991,28.6553001h-7.249999c-0.5332003,0-0.9629002-0.4302006-0.9629002-0.9619007
			c0-0.532299,0.4296999-0.9629002,0.9629002-0.9629002h7.249999c0.5332012,0,0.9629002,0.4306011,0.9629002,0.9629002
			C18.9130993,28.2250996,18.4834003,28.6553001,17.9501991,28.6553001z"/>
	</g>
	<g>
		<path class="st0" d="M17.9501991,32.7333984h-7.249999c-0.5332003,0-0.9629002-0.4306984-0.9629002-0.9623985
			c0-0.5321999,0.4296999-0.9629002,0.9629002-0.9629002h7.249999c0.5332012,0,0.9629002,0.4307003,0.9629002,0.9629002
			C18.9130993,32.3027,18.4834003,32.7333984,17.9501991,32.7333984z"/>
	</g>
	<g>
		<path class="st0" d="M17.9501991,36.7919998h-7.249999c-0.5332003,0-0.9629002-0.4306984-0.9629002-0.9628983
			c0-0.5317001,0.4296999-0.9624023,0.9629002-0.9624023h7.249999c0.5332012,0,0.9629002,0.4307022,0.9629002,0.9624023
			C18.9130993,36.3613014,18.4834003,36.7919998,17.9501991,36.7919998z"/>
	</g>
	<g>
		<path class="st0" d="M14.3261995,56.4243011c-1.7489996,0-3.4853001-0.7773018-4.648387-2.0791016
			C8.6484995,53.1913986,8.1738997,51.7528992,8.3399,50.293499l1.1220999-9.6665001
			c0.0565996-0.4853973,0.4686995-0.8516006,0.9569998-0.8516006h7.7939005c0.4882984,0,0.9004002,0.3662033,0.9560986,0.8516006
			l1.1211014,9.6655006c0.1669998,1.4613991-0.3086014,2.9018021-1.3389015,4.0571022
			C17.7929993,55.6488991,16.0634995,56.4243011,14.3261995,56.4243011z M11.2763996,41.7001991l-1.0234003,8.8139992
			c-0.1034994,0.9043007,0.2031002,1.8105011,0.8623009,2.5498009c0.8007994,0.8983994,2.0018997,1.4350014,3.2108994,1.4350014
			c1.1973,0,2.3886995-0.535099,3.1885004-1.4310989c0.6601124-0.740303,0.9667988-1.6480026,0.8633003-2.5552025l-1.0235004-8.8125
			H11.2763996z"/>
	</g>
	<g>
		<path class="st0" d="M14.3261995,53.3476982c-0.9902,0-1.9598999-0.445797-2.5957003-1.1933975
			c-0.5516872-0.6483994-0.7851-1.4458008-0.6552992-2.2456017l0.2823-1.7016983
			c0.0760994-0.4653015,0.4775-0.8050995,0.9491997-0.8050995h4.0184994c0.4717007,0,0.8731003,0.3407974,0.950201,0.8055992
			l0.2803001,1.6991997c0.1299,0.8022995-0.1025009,1.6016006-0.6553001,2.2509995
			C16.2656994,52.9028015,15.303812,53.3476982,14.3261995,53.3476982z M13.1230993,49.3266983l-0.1475,0.8935013
			c-0.0370998,0.2373009,0.0352135,0.4692993,0.2207003,0.6865005c0.2676001,0.3129997,0.71,0.516201,1.1299,0.516201
			c0.4071999,0,0.8428001-0.2012024,1.1073999-0.5121994c0.1280003-0.1504021,0.2705002-0.3936005,0.2216997-0.6924019
			l-0.1464872-0.8916016H13.1230993z"/>
	</g>
</g>
</svg>
